<svg id="Layer_1" data-name="Layer 1" xmlns="http://www.w3.org/2000/svg" viewBox="0 0 470.6 768.2"><defs><style>.cls-1{fill:#004fff;}</style></defs><title>base1</title><g id="rect1875"><path class="cls-1" d="M1112.9,193.9c-25.7,1.7-51.4,2.8-77.2,3.5-23.6.7-47.2.8-70.8,2.1-11.2.6-22.4,1.3-33.6,2.4-6.7.6-13.8,1-20.4,2.7-1.9,2.1-4.3,2.9-7.3,1.1s-5.2-7.2-6.2-11.1l-41.3.2,1.4,422.8c4.2,15.1,4.8,32.3.1,47.2l1,296.7h10.1a32.2,32.2,0,0,1,12.5-5.1c3-.7,5.6,1.7,7.5,5.1h18.8a6.4,6.4,0,0,1,10,0h6.8a44.8,44.8,0,0,1,6.4-.5c4.6,0,9.3.4,14-.1a5.2,5.2,0,0,1,2.7.5l300-1c2.3-2.4,4.5-3.1,6.5-2.6,2.8-1.7,5.9.4,8.1,2.6h16a10.9,10.9,0,0,1,3.6-1.2c2.9.5,5.9.8,8.8,1.2l36.3-.2-2.5-766.7Z" transform="translate(-856.1 -193.2)"/></g></svg>