<svg id="Layer_1" data-name="Layer 1" xmlns="http://www.w3.org/2000/svg" viewBox="0 0 469.6 768.2"><defs><style>.cls-1{fill:#ffd600;}.cls-2{fill:#fff;}</style></defs><title>base2</title><g id="rect1875"><path class="cls-1" d="M905.8,959.8c5.5-.4,11.3-.6,17.2-.5,3.7-.2,7.3-.3,10.3-.2,5.9,0,11.7.3,17.5.6a155,155,0,0,1,16.2-1.9,150,150,0,0,1,33.5,1.1,49,49,0,0,1,8.8,1.7l315.9-1-.2-43.8-5.6-2.2c-6.6-2.5-8.6-6.5-5.5-10.8s6.5-6.5,11-9.1v-8.3c-2.9-2.4-3.8-5.7-1.1-8.5l.3-.3a13.4,13.4,0,0,0-.1-2,16.3,16.3,0,0,0-3-2.8c-5-3.6-1.3-7.1,3.8-9.7l-2.1-418.2a103.4,103.4,0,0,1-11.2-18.3c-3.2-6.7-4.2-13.2.3-19.8,2.2-3.3,6-5.8,10.7-7.9v-2.3l-.6-.5c-2.5-1.9-1.6-4.3.5-6.2l-.4-82c-.4-.9-.7-1.8-1-2.7s0-4.5,1-6.7l-.3-59.3a28.6,28.6,0,0,0-6.3-6.2c-5.6-4.2,0-8.2,6.2-10.9l-.2-28.2-465.6,1.5.6,126.2a10.3,10.3,0,0,1,0,7.9v5.3a167.6,167.6,0,0,1,10.2,20.3c-.5,2.4-2.5,4.3-5.9,5.6l-.8.3a3.9,3.9,0,0,1-.8,1c-1.9,8.2,5.8,16.6,3.7,25-.6,2.6-2.9,4.5-6.1,6.1l.2,47.4c3.6,14.3,6.4,28.7,10.4,43,1.6,5.5,6.1,14.7,1.4,20-1.9,2.2-5.6,3.6-8.9,4.9a24.1,24.1,0,0,0-2.5,1.1v4l.3,1.3c2.3,3.6,5.3,6.9,7.2,10.6a38.8,38.8,0,0,1,4,12.5,20.1,20.1,0,0,1-5.7,17.4,36.3,36.3,0,0,1-5.6,4.4l2,402.4h34.4C897.8,960.5,901.7,960.1,905.8,959.8Z" transform="translate(-855.7 -192.9)"/></g><path class="cls-2" d="M1255.6,749.1a206.2,206.2,0,0,1-1.6-77.9c.7-3.9,1.5-7.8,2.3-11.7V588.7c-3.6-8.3-7.1-16.7-7.2-25.6-.2-14.9,6.1-29,5.4-44a6.5,6.5,0,0,1,1.8-4.6V430.1H1033.6c-1.6,1.9-3.4,3.2-5.3,2.7a21.8,21.8,0,0,1-6.1-2.7h-14.4l-.5.4c-4.2,3.8-11.1,5.5-16.7,5.8-8.5.5-16.6-3-24.5-6.2H924.5V958.5h331.8V751.4A8.8,8.8,0,0,1,1255.6,749.1Z" transform="translate(-855.7 -192.9)"/></svg>