<svg id="Layer_1" data-name="Layer 1" xmlns="http://www.w3.org/2000/svg" viewBox="0 0 468 767.4"><defs><style>.cls-1{fill:#fff;}</style></defs><title>base3</title><path class="cls-1" d="M1324.6,193.5h-468V578c5.1,6.5,9.8,13.5,14.9,20a12.4,12.4,0,0,1,1.8,2.2c2.1,3.3-.1,5.6-3.5,7.3,1,12.5,4.4,24.8,4.8,37.4a52.7,52.7,0,0,1-4.1,23.5c-2.6,5.9-8,9.2-13.9,11.2v18.2c6.3,7.1,13.8,13.3,18.9,21.2,2.7,4.1-2.4,6.8-5.4,8.2l-7,3.2c3.3-1.4-1.3.8-2.3,1.5a3.9,3.9,0,0,1-1,.8l-1.3,1.4-1.9,2.6V960.8h38.9A42.5,42.5,0,0,0,906.7,950c5.5-7.8,10.3,2.6,11.5,7.5.2,1.1.5,2.2.8,3.3h19a164.4,164.4,0,0,1,14.3-9.1c3.2-1.7,5.3.4,6.8,2.9a66.9,66.9,0,0,0,4.8-5.6c1.3-1.7,4.1-4.1,6.4-2.1s4.1,2.1,6.9.5,5.8-3.8,9-5.4a4.6,4.6,0,0,1,6.4,2.2,63.6,63.6,0,0,1,5.3,13.3c.2.7.5,1.4.7,2.2s.4,1.5-.3-.9a4.2,4.2,0,0,0,.5,2h9.2c2.7-2.2,5.2-4.8,8.3-6.5,6-3.1,11.8-1.9,16.9,2.3a11.5,11.5,0,0,1,3.4,4.2h74.7c1.8-3.3,4.4-6.6,8.3-7.1a15.4,15.4,0,0,0,3.1-.5c4.3-2.1,7.1-5.6,10.9-8.5s10.2-5.5,15.4-7.5a62.4,62.4,0,0,0,18.2-10.1,79.4,79.4,0,0,1,14-9.7c10.3-5.2,19.6-5,27.2,4.3a52.3,52.3,0,0,1,6.5,11,35.1,35.1,0,0,1,3.6-2.9c2.8-2,5.2-1.9,7.3-.4,2.8-1.7,5.8-3.2,8.8-3.4,9.2-.4,14.3,10.1,17,17.2a59.5,59.5,0,0,1,4,17.6h69V456.9a27.3,27.3,0,0,1-4.5-4.5c-4.6-5.9-2.5-11.1,2.6-15.6l1.9-1.5V379.8a44.8,44.8,0,0,1-4.3-16c-.4-7,2.3-13.9,4.3-20.7Z" transform="translate(-856.6 -193.5)"/><g id="rect1907"><path d="M1301,258.5a45,45,0,0,0-45-44.9h-.1L923,214.7a45.1,45.1,0,0,0-44.9,45.2l2.1,631.4a45,45,0,0,0,45,44.9h.1l228-.7a62.1,62.1,0,0,0,13.9-8.4l2.1-1.7-244,.8h-.1a35,35,0,0,1-35-34.9l-2.1-631.4A35.1,35.1,0,0,1,923,224.7l332.9-1.1h.1a35,35,0,0,1,35,34.9l2.1,631.5a35,35,0,0,1-34.9,35.1l-47.3.2a58.1,58.1,0,0,1,4,7.4,35.1,35.1,0,0,1,3.6-2.9c2.8-2,5.2-1.9,7.3-.4,2.8-1.7,5.8-3.2,8.8-3.4,6-.3,10.3,4.1,13.3,9.2h10.3a45,45,0,0,0,44.9-45.1Z" transform="translate(-856.6 -193.5)"/></g></svg>