<svg id="Layer_1" data-name="Layer 1" xmlns="http://www.w3.org/2000/svg" viewBox="0 0 331.8 200.3"><defs><style>.cls-1{fill:#fff;}</style></defs><title>c1</title><rect class="cls-1" y="1.7" width="331.8" height="198.14"/><path d="M925.1,677.3V479.7H968v23.2H948.1V654.1H968v23.2Z" transform="translate(-924.7 -477)"/><path d="M1069.5,577.2l24.8,9.6c-3.9,17.2-10.3,29.8-19.3,37.8s-20,11.9-33.1,11.9c-16.5,0-29.9-6.3-40.1-19q-17.7-22.1-17.7-59.4c0-26.3,6-46.8,17.8-61.7q15.5-19.3,41.6-19.4c14.2,0,26.1,4.9,35.6,14.6q10.2,10.2,15,30.6l-25.3,7.3q-2.4-12.4-9.6-19.2a24.5,24.5,0,0,0-17.1-6.6c-9.3,0-16.9,4-22.8,12.2s-8.9,21.5-8.9,40.3,2.9,33.2,8.7,41.4,13.2,12.3,22.4,12.3q10.1,0,17.4-7.8C1063.8,596.8,1067.4,588.6,1069.5,577.2Z" transform="translate(-924.7 -477)"/><path d="M1177.1,633.9h-24.2V522.5a83.5,83.5,0,0,1-31.4,22.4V518.1c6.7-2.8,13.7-7.6,21-14.7a56.4,56.4,0,0,0,15-24.3h19.6Z" transform="translate(-924.7 -477)"/><path d="M1256.3,479.7V677.3h-42.9V654.1h19.8V502.7h-19.8v-23Z" transform="translate(-924.7 -477)"/></svg>