<svg id="Layer_1" data-name="Layer 1" xmlns="http://www.w3.org/2000/svg" viewBox="0 0 331.8 200.3"><defs><style>.cls-1{fill:#fff;}</style></defs><title>C2</title><rect class="cls-1" y="1.7" width="331.8" height="198.14"/><path d="M925.1,734V536.4H968v23.2H948.1V710.8H968V734Z" transform="translate(-924.7 -533.7)"/><path d="M1069.5,633.9l24.8,9.6c-3.9,17.2-10.3,29.8-19.3,37.8s-20,11.9-33.1,11.9c-16.5,0-29.9-6.3-40.1-19-11.8-14.7-17.7-34.4-17.7-59.3s6-46.9,17.8-61.8q15.5-19.4,41.6-19.4c14.2,0,26.1,4.9,35.6,14.6q10.2,10.2,15,30.6l-25.3,7.3q-2.4-12.5-9.6-19.2a24.5,24.5,0,0,0-17.1-6.6c-9.3,0-16.9,4-22.8,12.2s-8.9,21.5-8.9,40.3,2.9,33.2,8.7,41.4,13.2,12.3,22.4,12.3q10.1,0,17.4-7.8C1063.8,653.6,1067.4,645.3,1069.5,633.9Z" transform="translate(-924.7 -533.7)"/><path d="M1196.9,663.1v27.5h-85a83.1,83.1,0,0,1,8.4-29.6c4.7-9.3,13.7-21.6,27.2-36.8,10.7-12.2,17.2-20.4,19.7-24.6a37.5,37.5,0,0,0,5.4-18.8q0-10.2-4.5-15.3a15.1,15.1,0,0,0-11.9-5.1c-10.7,0-16.5,8-17.3,24.1l-24.1-3c1.5-15.7,5.8-27.2,13.1-34.6s16.9-11.1,29-11.1,23.2,4.4,29.9,13a46.4,46.4,0,0,1,10.1,29.6,67,67,0,0,1-2.5,18.4,79.5,79.5,0,0,1-8,17.8c-3.6,6-9.5,13.7-17.9,23s-12.7,14.5-14.7,17.3a46.3,46.3,0,0,0-5,8.2Z" transform="translate(-924.7 -533.7)"/><path d="M1256.3,536.4V734h-42.9V710.8h19.8V559.4h-19.8v-23Z" transform="translate(-924.7 -533.7)"/></svg>