<svg id="Layer_1" data-name="Layer 1" xmlns="http://www.w3.org/2000/svg" viewBox="0 0 331.8 200.3"><defs><style>.cls-1{fill:#fff;}</style></defs><title>C3</title><rect class="cls-1" y="1.7" width="331.8" height="198.14"/><path d="M925.7,677.2V479.6h43v23.2H948.8V654h19.9v23.2Z" transform="translate(-925.3 -476.9)"/><path d="M1070.2,577.1l24.7,9.6c-3.9,17.2-10.3,29.8-19.3,37.8s-20,11.9-33.1,11.9c-16.5,0-29.8-6.3-40.1-19-11.8-14.7-17.6-34.5-17.6-59.4s5.9-46.8,17.7-61.7c10.4-12.9,24.2-19.4,41.6-19.4,14.2,0,26.1,4.9,35.6,14.5,6.8,6.9,11.8,17.1,15,30.7l-25.3,7.3q-2.4-12.4-9.6-19.2a24.5,24.5,0,0,0-17-6.7c-9.4,0-17,4.1-22.9,12.2s-8.8,21.6-8.8,40.3,2.8,33.3,8.6,41.5,13.2,12.3,22.4,12.3c6.7,0,12.5-2.6,17.5-7.8S1068,588.4,1070.2,577.1Z" transform="translate(-925.3 -476.9)"/><path d="M1114.8,593l23.4-3.5c.7,7.3,2.7,12.8,6.1,16.6a15.1,15.1,0,0,0,11.9,5.8c5,0,9.2-2.3,12.6-6.8s5.2-10.9,5.2-19-1.6-13.4-5-17.6-7.3-6.5-12-6.5a37.3,37.3,0,0,0-11.1,2.2l2.6-24q9.4.1,15-5.1c3.6-3.5,5.4-8.4,5.4-14.8s-1.4-9.5-4-12.5a12.6,12.6,0,0,0-10-4.5c-4.1,0-7.6,1.8-10.6,5.2s-4.8,8.6-5.3,15.4l-22.4-4.6c2.3-14.1,6.8-24.3,13.6-30.7s15.2-9.6,25.5-9.6,20.6,4.1,27.4,12.3,10.2,17.3,10.2,27.2a37,37,0,0,1-4.6,18.2,42.9,42.9,0,0,1-13.7,14.2,30.2,30.2,0,0,1,17.3,12.5c4.4,6.5,6.6,14.5,6.6,24.2,0,14.1-4.2,25.8-12.5,35s-18.4,13.8-30,13.8a38.4,38.4,0,0,1-28.2-11.6C1120.5,617,1116,606.4,1114.8,593Z" transform="translate(-925.3 -476.9)"/><path d="M1256.9,479.6V677.2H1214V654h19.9V502.6H1214v-23Z" transform="translate(-925.3 -476.9)"/></svg>