<?xml version="1.0" encoding="utf-8"?>
<!-- Generator: Adobe Illustrator 22.0.0, SVG Export Plug-In . SVG Version: 6.00 Build 0)  -->
<svg version="1.1" id="Layer_1" xmlns="http://www.w3.org/2000/svg" xmlns:xlink="http://www.w3.org/1999/xlink" x="0px" y="0px"
	 viewBox="0 0 800 520" style="enable-background:new 0 0 800 520;" xml:space="preserve">
<style type="text/css">
	.st0{fill:#D8D9D8;}
</style>
<title>ripg</title>
<path class="st0" d="M-5-6.5h810v520.7c-2-0.3-3.2-1.5-5.6-1c-2.1,0.5-4.5,3.4-8.1,2c-1.4-0.5-1-1.6-3-2c-5,6.5-18,5.5-26.8,3.5
	c-5.4-1.2-7.9,2.7-12.1,1.5c-2.2-0.6-2.8-3.4-5.1-2.5c-2.9,0.7-3,2.4-7.1,2.5c-1.4-1.4-3-2.8-4.6-4c-2.6-1-6.6,1-8.6-0.5
	c-0.8-0.6-2-3.2-2.5-4c-3.4,2-13,4.8-19.2,3c-2.3-0.6-3.6-4-7.1-3l-1.5,1.5h-11.1c-2.4,0.7-7,2.4-9.1,3l-7.6-1
	c-4,1.4-3.8,4.9-11.1,5.1c-2.2-3-4.1-1.4-8.6-2.5c-0.2-0.1-1-1.1-1.5-1c-1.3,0.2-2,2.1-4.6,1.5c-2.5-0.6-4-3.5-6.1-4
	c-2.5-0.7-6.1,1.2-8.6-0.5c-1.3-0.9-2.6-3.4-4-4l-5.1-0.5l-2-2c-2.1-0.6-2.5,1.2-3.5,1.5H603c-1.2,0.4-2.3,2-4.6,1.5
	c-2.5-0.5-3.4-2.8-5.1-3.5l-7.6,0.5c-0.7-0.2-2.6-1.4-3-1.5c-2.5-0.6-6.6,1.5-8.1,2h-7.1c-3.4,1-8.2,1.1-11.6,2l-9.1,0.5
	c-2.1,0.8-5.4,3-7.6,3.5c-4.6,1.2-14.2-4.6-17.7-4c-8.7,1.3-15.4,5.8-23.3,7.1c-4.6,0.8-8.8-2.7-14.2-1c-2.8,0.9-3.7,2.5-8.1,2.5
	c-0.1-0.1-14.5-9.1-14.7-9.1c-2.6-0.8-9.8,1.1-13.7,0.5c-1.8-0.3-1.2-2-3.5-1.5l-1.5,1.5h-12.1l-1.5,2c-2.7,1.6-7,0.8-9.6,0h-8.1
	c-2.9-0.9-13.8-4.8-16.2-1c-1.2,1.5-0.9,3.5-1.5,4.6c-0.6,0.4-0.9,0.4-2,0.5c-2.2-2.1-8,1.8-10.1,1c-1.5-0.6-1.6-1.9-4.6-2v1
	c0.4,0.5,0.3,0.5,0.5,1.5c-1.3,0.4-2.7,0.6-4,0.5c-0.6-0.6-1.1-1.3-1.5-2c-3.7,2.9-16.6,7.5-24.3,5.1c-1.6-0.5-1.7-2.7-4.6-2l-1,1
	l-12.7-0.5c-1.5,0.6-5.6,3.5-9.1,2.5l-1.5-1.5l-7.6-0.5l-1.5-1.5c-2.7-1-5.2,0-7.6-1c-1.7-0.7-2.7-2.5-4.6-3l-12.7-0.5
	c-1-0.3-1.9-1.8-2.5-2h-8.6c-1.6,2-6.7,5.3-9.1,6.1l-15.2-0.5l-1,1.5c-5.9,2.7-14.6-3.3-18.2-5.1c-2.6-1.2-3.7,1.6-6.1,1
	c-3.4-0.8-7.5-3.7-11.6-4c-3.7,5.1-8.7,0.3-13.7-0.5s-8.4,4.8-14.2,2.5c-2.7-1-6.5-4.5-11.6-3c-3.2,0.9-6.3,4.2-9.6,5.1
	c-2.9,0.8-6-1-8.1-1.5c-5.7-1.3-8.5,2.7-13.2,1.5c-2-0.5-3.3-2.3-5.1-3c-2.6-1-4.7-0.7-7.1-2l-2-2h-12.1c-0.8-0.3-1.7-1.8-2.5-2
	c-2.3-0.8-16-0.7-17.7,0c-1.3,0.5-3.8,2.6-5.6,3c-2.6,0.7-3.6-0.9-6.1-1c-1,1.5-2.2,2.8-3.5,4c-5.1-0.1-10.1-0.4-15.2-1
	c-1.1,1.7-1.7,2.4-4.6,2.5c-1-1.1-1.5-1.3-3.5-1.5c-1,1.4-1.5,1.5-4,1.5c-2-2-3.7-0.5-7.1-1.5c-1.9-0.6-7.3-5.1-10.1-4
	c-0.7,0.2-2,1.9-3,2c-2.6,0.4-3.9-3.6-7.1-2c-3.9,1.9-6.8,5.7-12.1,6.1c-6.8-6.1-12.9,1-18.2,2V-6.5z"/>
</svg>
