<svg id="Layer_1" data-name="Layer 1" xmlns="http://www.w3.org/2000/svg" viewBox="0 0 800 520"><defs><style>.cls-1{fill:#d8d9d8;}</style></defs><title>ripgi</title><path class="cls-1" d="M799,593.8c-5.21-1-11.28-8-18-2-5.29-.35-8.11-4.08-12-6-3.18-1.57-4.47,2.36-7,2-1-.14-2.35-1.77-3-2-2.79-1-8.15,3.45-10,4-3.36,1-5-.47-7,1.5-2.49,0-3-.08-4-1.5-2,.17-2.49.44-3.5,1.5-2.81-.09-3.44-.78-4.5-2.5a146.63,146.63,0,0,1-15,1,26.9,26.9,0,0,1-3.5-4c-2.49.16-3.39,1.71-6,1-1.78-.48-4.22-2.46-5.5-3-1.71-.72-15.21-.77-17.5,0-.79.27-1.71,1.73-2.5,2H668l-2,2c-2.39,1.28-4.41,1-7,2-1.72.68-3,2.49-5,3-4.57,1.15-7.35-2.79-13-1.5-2.12.49-5.09,2.3-8,1.5-3.23-.88-6.35-4.13-9.5-5-5.1-1.41-8.87,2-11.5,3-5.7,2.27-9.1-3.24-14-2.5s-9.86,5.58-13.5.5c-4.09.33-8.16,3.22-11.5,4-2.34.55-3.46-2.22-6-1-3.54,1.71-12.15,7.65-18,5l-1-1.5-15,.5c-2.42-.77-7.46-4-9-6h-8.5c-.64.27-1.55,1.72-2.5,2l-12.5.5c-1.88.52-2.86,2.3-4.5,3-2.32,1-4.81,0-7.5,1l-1.5,1.5-7.5.5-1.5,1.5c-3.43,1-7.49-1.89-9-2.5l-12.5.5-1-1c-2.82-.65-2.88,1.49-4.5,2-7.6,2.38-20.34-2.11-24-5a13.2,13.2,0,0,1-1.5,2,12.34,12.34,0,0,1-4-.5c.2-1,.12-1,.5-1.5v-1c-2.95.11-3,1.45-4.5,2-2.1.79-7.8-3.12-10-1-1.16-.11-1.41-.1-2-.5-.58-1.08-.33-3-1.5-4.5-2.33-3.71-13.15.1-16,1h-8c-2.63.75-6.86,1.62-9.5,0l-1.5-2H357l-1.5-1.5c-2.33-.53-1.76,1.21-3.5,1.5-3.85.63-10.92-1.27-13.5-.5-.17.05-14.42,8.89-14.5,9-4.31-.08-5.2-1.6-8-2.5-5.3-1.71-9.43,1.77-14,1-7.8-1.31-14.45-5.7-23-7-3.44-.52-12.91,5.21-17.5,4-2.17-.57-5.42-2.69-7.5-3.5l-9-.5c-3.42-.91-8.12-1-11.5-2h-7c-1.53-.55-5.5-2.57-8-2-.46.1-2.35,1.34-3,1.5l-7.5-.5c-1.65.69-2.52,3-5,3.5-2.18.44-3.29-1.13-4.5-1.5H191c-1.08-.35-1.39-2.07-3.5-1.5l-2,2-5,.5c-1.45.65-2.72,3.16-4,4-2.55,1.67-6-.2-8.5.5-2,.57-3.54,3.4-6,4s-3.23-1.29-4.5-1.5c-.52-.08-1.26.94-1.5,1-4.43,1.07-6.3-.51-8.5,2.5-7.22-.12-7-3.66-11-5l-7.5,1c-2.11-.59-6.65-2.31-9-3H109l-1.5-1.5c-3.47-1-4.72,2.36-7,3-6.14,1.71-15.66-1-19-3-.52.82-1.73,3.41-2.5,4-1.94,1.49-5.92-.45-8.5.5a50.17,50.17,0,0,0-4.5,4c-4-.15-4.15-1.76-7-2.5-2.23-.83-2.86,1.89-5,2.5-4.2,1.19-6.68-2.69-12-1.5-8.71,1.94-21.61,2.92-26.5-3.5-2.05.46-1.64,1.49-3,2-3.6,1.34-5.93-1.54-8-2-2.31-.51-3.52.75-5.5,1V80H799Z" transform="translate(1 -80)"/></svg>