<svg id="Layer_1" data-name="Layer 1" xmlns="http://www.w3.org/2000/svg" viewBox="0 0 800 520"><defs><style>.cls-1{fill:#ffda00;}</style></defs><title>ripy</title><path class="cls-1" d="M-1,80H799V594.3c-2-.25-3.19-1.51-5.5-1-2.07.46-4.4,3.34-8,2-1.36-.51-1-1.54-3-2-4.89,6.42-17.79,5.44-26.5,3.5-5.32-1.19-7.8,2.69-12,1.5-2.14-.61-2.77-3.33-5-2.5-2.85.74-3,2.35-7,2.5a50.17,50.17,0,0,0-4.5-4c-2.58-.95-6.56,1-8.5-.5-.77-.59-2-3.18-2.5-4-3.34,2-12.86,4.71-19,3-2.28-.64-3.53-4-7-3l-1.5,1.5H678c-2.35.69-6.89,2.41-9,3l-7.5-1c-4,1.34-3.78,4.88-11,5-2.2-3-4.07-1.43-8.5-2.5-.24-.06-1-1.08-1.5-1-1.27.21-2,2.1-4.5,1.5s-4-3.43-6-4c-2.46-.7-6,1.17-8.5-.5-1.28-.84-2.55-3.35-4-4l-5-.5-2-2c-2.11-.57-2.42,1.15-3.5,1.5h-7.5c-1.21.37-2.32,1.94-4.5,1.5-2.48-.5-3.35-2.81-5-3.5l-7.5.5c-.65-.16-2.54-1.4-3-1.5-2.5-.57-6.47,1.45-8,2h-7c-3.38,1-8.08,1.09-11.5,2l-9,.5c-2.08.81-5.33,2.93-7.5,3.5-4.59,1.21-14.06-4.52-17.5-4-8.55,1.3-15.2,5.69-23,7-4.57.77-8.7-2.71-14-1-2.8.9-3.69,2.42-8,2.5-.08-.11-14.33-8.95-14.5-9-2.58-.77-9.65,1.13-13.5.5-1.74-.29-1.17-2-3.5-1.5l-1.5,1.5H429l-1.5,2c-2.64,1.62-6.87.75-9.5,0h-8c-2.85-.9-13.67-4.71-16-1-1.17,1.53-.92,3.42-1.5,4.5-.59.4-.84.39-2,.5-2.2-2.12-7.9,1.79-10,1-1.47-.55-1.55-1.89-4.5-2v1c.38.54.3.47.5,1.5a12.34,12.34,0,0,1-4,.5,13.2,13.2,0,0,1-1.5-2c-3.66,2.89-16.4,7.38-24,5-1.62-.51-1.68-2.65-4.5-2l-1,1-12.5-.5c-1.51.61-5.57,3.47-9,2.5l-1.5-1.5-7.5-.5-1.5-1.5c-2.69-1-5.18,0-7.5-1-1.64-.7-2.62-2.48-4.5-3l-12.5-.5c-.95-.28-1.86-1.73-2.5-2H274c-1.54,2-6.58,5.23-9,6l-15-.5-1,1.5c-5.85,2.65-14.46-3.29-18-5-2.54-1.22-3.66,1.55-6,1-3.34-.78-7.41-3.67-11.5-4-3.64,5.08-8.57.25-13.5-.5s-8.3,4.77-14,2.5c-2.63-1-6.4-4.41-11.5-3-3.15.87-6.27,4.12-9.5,5-2.91.8-5.88-1-8-1.5-5.65-1.29-8.43,2.65-13,1.5-2-.51-3.28-2.32-5-3-2.59-1-4.61-.72-7-2l-2-2H118c-.79-.27-1.71-1.73-2.5-2-2.29-.77-15.79-.72-17.5,0-1.28.54-3.72,2.52-5.5,3-2.61.71-3.51-.84-6-1a26.9,26.9,0,0,1-3.5,4,146.63,146.63,0,0,1-15-1c-1.06,1.72-1.69,2.41-4.5,2.5-1-1.06-1.47-1.33-3.5-1.5-1,1.42-1.51,1.51-4,1.5-2-2-3.64-.51-7-1.5-1.85-.55-7.21-5-10-4-.65.23-2,1.86-3,2-2.53.36-3.82-3.57-7-2-3.89,1.92-6.71,5.65-12,6-6.72-6-12.79,1-18,2Z" transform="translate(1 -80)"/></svg>