<svg id="Layer_1" data-name="Layer 1" xmlns="http://www.w3.org/2000/svg" viewBox="0 0 20.5 498.8"><defs><style>.cls-1{fill:#fff;}</style></defs><title>sss</title><path class="cls-1" d="M223,29.3c.3,1.3.4,2.7.6,4.1.6,7.3.4,16.1-1.8,23.4,0,.1.1.1.1.2,2.3,5.2,2.7,12.1-2.1,16.3l-.2.2a5.9,5.9,0,0,0,.2,1.3,86,86,0,0,1,2.3,13.3c.5,7.8-1.8,15.1-3.4,22.6-3.5,16.3-1.3,34.6-.9,51.8s1.5,34.3.7,51.5-4.5,31.9-3.4,48.6,3.9,33.1,2.4,49.8c-.7,8.4-1.8,16.7-2,25.1s0,17.7.3,26.6c.6,17.6,1.1,35.1.9,52.7s-.8,35.3,0,52.9c.3,7,2.6,13.9,3.6,20.9,1.4,9.3.2,17.7-1.8,26.8a40.6,40.6,0,0,0-1.1,10.1v.6h18V29.3Z" transform="translate(-214.9 -29.3)"/></svg>