<svg id="Layer_1" data-name="Layer 1" xmlns="http://www.w3.org/2000/svg" viewBox="0 0 474.5 302.6"><defs><style>.cls-1{fill:#fff;}.cls-2{fill:#d10000;}.cls-3{fill:#ffce00;}.cls-4{fill:#00af47;}.cls-5{fill:#004fff;}.cls-6{fill:#ffd600;}</style></defs><title>title</title><rect class="cls-1" x="189" y="208.2" width="96.9" height="73.81"/><rect class="cls-1" y="2" width="474.5" height="178.53"/><path class="cls-2" d="M703,603.8a1.9,1.9,0,0,1-2-1.1,6.4,6.4,0,0,1-.8-1.4h0a.4.4,0,0,1-.1-.3l-6.8-6.8a35.5,35.5,0,0,1-5.7-5.3,2.3,2.3,0,0,1-.5-1l-26.2-26.1L626.5,596a17.7,17.7,0,0,1-1.6,2.2,23,23,0,0,1-3.4,2.8l-1.1,1.1a8.4,8.4,0,0,1-1.5,2.8c-.5,1.1-1.4,2.3-2.6,2.3l-.8-.2-12.1,12.1,57.5,57.5,7.8-7.8a9.8,9.8,0,0,1,3.1-3.9,1.9,1.9,0,0,1,1.2-.4l.5-.5a22.6,22.6,0,0,1,1.1-2.2,2.5,2.5,0,0,1,2.4-1.3l41.4-41.4Z" transform="translate(-603.2 -374.1)"/><path class="cls-1" d="M660.5,666l-47.1-47.2,47.1-47.2,47.2,47.2Z" transform="translate(-603.2 -374.1)"/><path class="cls-1" d="M1076.3,609.1l-.7-.8c-2.6-3.5-3.5-7.9-4.1-12.2l-.3-2a56.8,56.8,0,0,0-86-18.9,26.2,26.2,0,0,1-1.9,4.9l-.2.3a1.7,1.7,0,0,1-.2.5c-.6,1.5-3.1,5.9-5.4,3.6h-.1a3.9,3.9,0,0,1-2.7,1.6,56.6,56.6,0,0,0-11.1,33.8,57.2,57.2,0,0,0,6.8,27,1.5,1.5,0,0,1,1.5.5,17.4,17.4,0,0,1,2.5,2.9,17.7,17.7,0,0,1,2.3,5.9,56.9,56.9,0,0,0,100.6-36.3A53.9,53.9,0,0,0,1076.3,609.1Z" transform="translate(-603.2 -374.1)"/><path d="M1020.5,671.6a51.9,51.9,0,1,1,51.8-51.8A51.9,51.9,0,0,1,1020.5,671.6Zm0-99.6a47.8,47.8,0,1,0,47.8,47.8A47.8,47.8,0,0,0,1020.5,572Z" transform="translate(-603.2 -374.1)"/><path d="M1020.5,672.1a52.4,52.4,0,1,1,52.3-52.3A52.4,52.4,0,0,1,1020.5,672.1Zm0-103.7a51.4,51.4,0,1,0,51.3,51.4A51.5,51.5,0,0,0,1020.5,568.4Zm0,99.7a48.3,48.3,0,1,1,48.3-48.3A48.3,48.3,0,0,1,1020.5,668.1Zm0-95.7a47.4,47.4,0,1,0,47.3,47.4A47.4,47.4,0,0,0,1020.5,572.4Z" transform="translate(-603.2 -374.1)"/><path d="M1022.5,626.6a72.8,72.8,0,0,1-3.6,10.6,63.8,63.8,0,0,1-12.4,1.9c-17.8.1-25.3-11.4-25.4-22-.1-13.7,10.4-23.3,26.3-23.5a54.2,54.2,0,0,1,12.2,1.7c.6,3.7,1.1,6.8,1.6,11l-2.4.5c-2.3-8-7.5-10.3-12.6-10.2-9.7.1-15,9.3-14.9,19.1.1,12.3,6.8,20.3,15.9,20.2,5.5,0,9.6-3.6,13-10.4Z" transform="translate(-603.2 -374.1)"/><path d="M1059.4,622.3c.1,10.8-7.6,16.2-15.4,16.3-10.5.1-15.7-7.5-15.8-14.8a15.9,15.9,0,0,1,15.8-16.4C1053.4,607.4,1059.3,614.3,1059.4,622.3Zm-21.6-1c0,8.2,2.7,14.7,6.9,14.7,2.6-.1,5.2-1.8,5.1-11.6s-2.4-14.4-6.6-14.4S1037.7,613.6,1037.8,621.3Z" transform="translate(-603.2 -374.1)"/><path class="cls-3" d="M685.2,398c-2.9-8.4-7.8-18.4-18.9-18.4-7.5,0-13,5.6-13,13.3s4.8,11.7,16.6,17.7c14.2,6.8,23.9,14.4,23.9,27.7,0,15.4-13.1,27.3-32.7,27.3a48.1,48.1,0,0,1-13.6-1.8,69.6,69.6,0,0,1-8.3-3c-1.2-3.4-2.9-14.7-3.9-22.9l4.8-1.5c2.6,8.6,10.6,23.7,23.5,23.7,8.2,0,13.5-5.6,13.5-14.1s-5.9-13-16-18.3c-13.9-7-23.5-14.3-23.5-27.2,0-14.9,11.7-26.4,30.9-26.4a56,56,0,0,1,18.7,3.6c.5,5,1.5,10.9,2.5,19.3Z" transform="translate(-603.2 -374.1)"/><path class="cls-3" d="M796.4,380.8c-7.4.4-10.8,3.2-11.5,7.9a120,120,0,0,0-1.2,18.8v14.6c0,14.3-2.1,25.6-9.7,33.7-6.2,6.5-15.3,9.8-24.9,9.8s-17.3-1.8-23.8-7-11.2-15.9-11.2-31.6V395.3c0-12.6-1.3-13.6-11.3-14.5v-4.7h40.5v4.7c-9.8.9-11.1,1.9-11.1,14.5v29.3c0,20.2,7.2,31.9,21.8,31.9s23-12.1,23-34.6V407.5a115.6,115.6,0,0,0-1.3-18.8c-.7-4.7-4-7.4-13.1-7.9v-4.7h33.8Z" transform="translate(-603.2 -374.1)"/><path class="cls-3" d="M842.6,376.1c10.6,0,18.3,1.5,23.5,5.2s10,11.1,10,19.8c0,18.1-13.3,26.3-27.5,28a38.3,38.3,0,0,1-5.6.3l-9.2-2.1v18.4c0,11.5,1.2,12.4,12.8,13.3v4.6H804.7V459c10.1-.9,11.3-1.8,11.3-13.3V394.1c0-11.4-1.2-12.2-10.5-13.3v-4.7Zm-8.8,45.8a22.8,22.8,0,0,0,7.3,1.3c5,0,15.8-3.5,15.8-21.7,0-15.2-8.7-20.2-16.9-20.2a7.8,7.8,0,0,0-5,1.4c-.8.8-1.2,2.1-1.2,4.2Z" transform="translate(-603.2 -374.1)"/><path class="cls-3" d="M959.3,441.3c-.8,6-3.6,18.3-4.7,22.3H885.9v-4.7c11.5-.9,12.8-1.7,12.8-13.2V394c0-11.7-1.3-12.4-10.9-13.2v-4.7h63.4c.2,2.4.9,11.8,1.4,20.2l-4.9.7c-1.3-4.8-3.1-9.2-5.5-11.6s-5.9-3.4-13.4-3.4h-6.5c-5,0-5.5.3-5.5,4.7v28.6h9c11.3,0,13.1-.7,14.9-10.1h4.9v27.2h-4.9c-1.8-9.7-3.5-10.3-14.9-10.3h-9v23.3c0,6.4.5,9.7,3.2,11.1s7,1.3,12.1,1.3c6.9,0,11.7-.9,15-4.3s5-7.3,7.5-13.2Z" transform="translate(-603.2 -374.1)"/><path class="cls-3" d="M1051.4,464.8h-4c-17-.8-22.2-4.6-27.6-13.1-3.5-5.5-7.2-12.8-11.1-19.8-2.1-4.1-4.5-5.8-8.8-5.9h-2.6v19.7c0,11,1.3,12.4,11.4,13.3v4.7H968.1v-4.7c10.1-.9,11.6-2.3,11.6-13.3V393.9c0-10.8-1.3-12.2-11.1-13.1v-4.7h37.9c11.7,0,18.5,1.3,23.9,5.1s9.2,9.6,9.2,17.9c0,11.9-7.8,18.2-16.9,22,1.9,3.9,7,12.9,11,19.1s7.6,11.7,10.3,14.5,5.1,4.7,8.2,5.8Zm-50.6-44.1c5.7,0,10.2-1,13.2-3.7,4.6-3.7,6.5-9.1,6.5-16,0-14.3-8.4-19.5-15.9-19.5-3.4,0-5.3.5-6.1,1.3s-1.2,2.2-1.2,5v32.9Z" transform="translate(-603.2 -374.1)"/><path class="cls-3" d="M697.2,471.9c-8.6,1-11.2,2.7-16.5,15.5-4.5,10.4-16.7,41-27.2,68.7h-6.8c-9.1-24.6-21.8-57.1-27.4-71-4.1-10.5-6.4-12.4-14.6-13.2v-4.8h40.1v4.8c-9.8,1.5-9.8,3-7.8,8.8,3.9,10.8,14.6,38,19.4,50.8h.4c7.4-19.7,13.2-35.2,17-46.9,2.9-9.4,2.9-11.3-8.1-12.7v-4.8h31.5Z" transform="translate(-603.2 -374.1)"/><path class="cls-3" d="M706.2,554.6v-4.7c10-.9,11.2-1.9,11.2-13.2V485.1c0-11.4-1.2-12.4-11.2-13.3v-4.7h40.4v4.7c-9.9.9-11.1,1.9-11.1,13.3v51.6c0,11.3,1.2,12.3,11.1,13.2v4.7Z" transform="translate(-603.2 -374.1)"/><path class="cls-3" d="M809.7,489c-2.9-8.4-7.9-18.4-18.9-18.4-7.5,0-13.1,5.6-13.1,13.3s4.9,11.7,16.7,17.7c14.2,6.8,23.9,14.4,23.9,27.7,0,15.4-13.1,27.3-32.8,27.3a49.2,49.2,0,0,1-13.6-1.8,73.8,73.8,0,0,1-8.2-3c-1.2-3.4-2.9-14.7-3.9-22.9l4.7-1.5c2.7,8.6,10.7,23.7,23.6,23.7,8.2,0,13.5-5.6,13.5-14.1s-6-13-16.1-18.3c-13.8-7-23.4-14.3-23.4-27.2,0-14.9,11.7-26.4,30.9-26.4a56.7,56.7,0,0,1,18.7,3.6c.5,5,1.5,10.9,2.5,19.3Z" transform="translate(-603.2 -374.1)"/><path class="cls-3" d="M828.8,554.6v-4.7c9.9-.9,11.1-1.9,11.1-13.2V485.1c0-11.4-1.2-12.4-11.1-13.3v-4.7h40.4v4.7c-10,.9-11.2,1.9-11.2,13.3v51.6c0,11.3,1.2,12.3,11.2,13.2v4.7Z" transform="translate(-603.2 -374.1)"/><path class="cls-3" d="M973.4,509.9c0,29.1-20.9,46.7-46.2,46.7-26.9,0-45.6-19.8-45.6-45.6,0-23.2,16.4-45.9,47.2-45.9C953.3,465.1,973.4,483.2,973.4,509.9Zm-71.2-1.5c0,23.1,10.2,42.6,27.4,42.6,12.8,0,23.2-12.5,23.2-37.3,0-26.8-10.9-43-26.4-43C912.8,470.7,902.2,485.1,902.2,508.4Z" transform="translate(-603.2 -374.1)"/><path class="cls-3" d="M1077.5,471.8c-7.3.4-10.1,2.2-10.8,8.4a191.1,191.1,0,0,0-1.2,22.3V556H1059l-56-67.1h-.4v30.3a184.7,184.7,0,0,0,1.1,21.8c.7,5.9,3,8.5,12.9,8.9v4.7h-33v-4.7c7.6-.5,10.7-2.7,11.2-8.5a159.3,159.3,0,0,0,1.4-22.2V491.1c0-8.8-.3-11.4-2.9-14.5s-5.5-4.3-11.2-4.8v-4.7h25l51.4,59.1h.5V502.5c0-11.8-.8-18.2-1-22.1-.7-5.8-3.5-8.1-13.4-8.6v-4.7h32.9Z" transform="translate(-603.2 -374.1)"/><path class="cls-4" d="M833.2,593.1c-.6-2.8-1.3-4.5-2.3-5.4s-2.2-1.3-5.3-1.3h-2.4v24.9c0,4.5.5,4.8,5.2,5.1v1.9H811.2v-1.9c4.4-.3,5-.6,5-5.1V586.4h-1.8c-4.4,0-5.3.6-6.1,1.4s-1.5,2.7-2.2,5.3h-1.9c.2-3.8.5-7.6.6-10.3h1.3c.8,1.2,1.5,1.3,3,1.3h21.1a3.5,3.5,0,0,0,3.1-1.3h1.3c0,2.2.3,6.8.5,10.2Z" transform="translate(-603.2 -374.1)"/><path class="cls-4" d="M874.4,600.8c0,11.4-8.1,18.3-18,18.3s-17.8-7.8-17.8-17.9,6.4-17.9,18.4-17.9A17,17,0,0,1,874.4,600.8Zm-27.8-.6c0,9,4,16.7,10.7,16.7,5,0,9.1-4.9,9.1-14.6s-4.3-16.8-10.3-16.8S846.6,591.1,846.6,600.2Z" transform="translate(-603.2 -374.1)"/><path class="cls-4" d="M821.5,630.6c-.6-2.8-1.4-4.5-2.3-5.4s-2.3-1.3-5.3-1.3h-2.5v24.9c0,4.5.6,4.8,5.2,5.1v1.9H799.4v-1.9c4.5-.3,5-.6,5-5.1V623.9h-1.8c-4.3,0-5.3.6-6,1.4s-1.6,2.7-2.3,5.3h-1.8c.2-3.8.5-7.6.6-10.3h1.2c.9,1.2,1.6,1.3,3,1.3h21.2a3.4,3.4,0,0,0,3-1.3h1.3c.1,2.2.3,6.8.6,10.2Z" transform="translate(-603.2 -374.1)"/><path class="cls-4" d="M842.3,655.8v-1.9c3.1-.4,3.4-1.1,2.5-3.4s-1.3-3.8-2.1-5.9H832.6c-.5,1.6-1.2,3.5-1.9,5.6s-.6,3.3,3.3,3.7v1.9H822.2v-1.9c3.5-.4,4.1-1,5.9-5.4l10.7-27,2.7-.7c3.4,9.2,6.7,18.4,10.1,27.4,1.8,4.6,2.4,5.3,5.8,5.7v1.9Zm-4.5-25.4h-.1c-1.5,3.9-2.8,7.7-4.2,11.4h8.2Z" transform="translate(-603.2 -374.1)"/><path class="cls-4" d="M888.2,646.9c-.4,2.2-1.5,7.5-1.9,8.9H860.7v-1.9c4.6-.3,5.1-.7,5.1-5.1V628.6c0-4.5-.5-4.8-4.5-5.2v-1.8h16.1v1.8c-4.1.4-4.6.7-4.6,5.2v20.6c0,2.4.2,3.4,1.3,3.8a11.1,11.1,0,0,0,4,.5c2.2,0,4.1-.4,5.4-1.8a17.3,17.3,0,0,0,2.9-5.4Z" transform="translate(-603.2 -374.1)"/><path d="M681.7,612.4c-1-4.3-2.2-7.1-3.7-8.6s-3.6-2-8.5-2h-3.8v39.8c0,7.1.8,7.6,8.2,8.2v3H646.5v-3c7-.6,7.9-1.1,7.9-8.2V601.8h-2.9c-6.9,0-8.4.9-9.7,2.2s-2.4,4.3-3.5,8.5h-3c.3-6.1.8-12.3,1-16.6h2c1.4,2,2.4,2.2,4.8,2.2h33.8a5.6,5.6,0,0,0,4.9-2.2h2c.1,3.6.5,11,1,16.4Z" transform="translate(-603.2 -374.1)"/><g id="rect1875"><rect class="cls-5" x="798" y="363" width="87.4" height="212.83" transform="translate(-311.2 886.9) rotate(-84.4)"/></g><path class="cls-1" d="M762.5,491.5l-13.4-61.4,7,.6,8.7,44.6c.7,3.4,1.2,6.7,1.6,10q1.6-4.8,3.6-9.6l17.3-42,6.6.6-24.8,57.8Z" transform="translate(-603.2 -374.1)"/><path class="cls-1" d="M793.7,494.4l4.1-43.2,5.9.6-4,43.2Zm4.8-51.2.8-8.4,6,.6-.8,8.4Z" transform="translate(-603.2 -374.1)"/><path class="cls-1" d="M809.4,482.9l6.1-.6c.1,3.1.8,5.4,2.2,7.1a9,9,0,0,0,6.1,2.8c2.6.2,4.7-.2,6.2-1.4a6.4,6.4,0,0,0,2.6-4.7,4.6,4.6,0,0,0-1.5-4.1c-.7-.8-2.7-1.8-5.8-3s-7.6-3.4-9-4.6A9.7,9.7,0,0,1,813,470a13.1,13.1,0,0,1,3.6-14.5c2.6-2.1,6-2.9,10.1-2.5a14.4,14.4,0,0,1,6.8,2.1,10.6,10.6,0,0,1,4.2,4.2,15.2,15.2,0,0,1,1.6,7.1l-6,.4c-.1-4.7-2.4-7.3-7-7.8-2.6-.2-4.6.1-5.9,1a4.9,4.9,0,0,0-2.3,3.8,4.5,4.5,0,0,0,1.4,4,32.5,32.5,0,0,0,6.3,3.2c4.8,2,7.9,3.6,9.3,4.7a9.7,9.7,0,0,1,3.1,4.1,14,14,0,0,1,.6,5.9,13.8,13.8,0,0,1-4.8,9.7c-2.9,2.3-6.6,3.2-11.1,2.8Q810.2,497,809.4,482.9Z" transform="translate(-603.2 -374.1)"/><path class="cls-1" d="M869.5,501.6l.6-6.3a14.9,14.9,0,0,1-5.4,5,12.3,12.3,0,0,1-13.4-1.7,10.2,10.2,0,0,1-3.4-6.1,35.7,35.7,0,0,1-.2-9.5l2.6-26.8,6,.6L854,480.7c-.4,4.5-.5,7.5-.2,9a6.9,6.9,0,0,0,6.2,5.6,8.8,8.8,0,0,0,7.4-2.8c1.7-1.9,2.9-5.6,3.4-11l2.2-23.2,6,.6-4.1,43.2Z" transform="translate(-603.2 -374.1)"/><path class="cls-1" d="M909.6,500a20.9,20.9,0,0,1-6.7,4.1,15.1,15.1,0,0,1-6.9,1c-3.7-.4-6.5-1.7-8.5-4.2s-2.8-5.5-2.5-9.3a15.2,15.2,0,0,1,2.2-6.5,11.6,11.6,0,0,1,4.7-4.1c1.8-.9,4.6-1.4,8.3-1.6a46.2,46.2,0,0,0,11-1.6l.2-1.8c.3-3,0-5.1-1-6.4s-3.5-3-6.6-3.3-4.9.2-6.4,1.2-2.8,3.1-3.7,6.2l-5.8-1.5c1.3-4.6,3.3-7.8,6-9.7s6.6-2.5,11.4-2.1,6.5,1.3,8.5,2.9a8.8,8.8,0,0,1,3.5,5.6,33.8,33.8,0,0,1,0,9.1l-.9,9.8c-.7,6.8-.9,11.1-.9,12.9a20.8,20.8,0,0,0,1.1,5.4l-6.3-.6A18.4,18.4,0,0,1,909.6,500Zm1.1-16.4a39.4,39.4,0,0,1-10.1,1.9,20.8,20.8,0,0,0-5.4.9,5.6,5.6,0,0,0-2.6,2.2,7.3,7.3,0,0,0-1.2,3.4,6.3,6.3,0,0,0,1.5,5.1,6.9,6.9,0,0,0,5.1,2.4,11.3,11.3,0,0,0,6-1.1,10.6,10.6,0,0,0,4.3-4.1c1.1-1.8,1.8-4.4,2.1-8Z" transform="translate(-603.2 -374.1)"/><path class="cls-1" d="M925.5,506.9l5.6-59.6,6,.5-5.6,59.7Z" transform="translate(-603.2 -374.1)"/><g id="rect1875-2" data-name="rect1875"><rect class="cls-4" x="889.8" y="600.8" width="54.6" height="55.61" transform="matrix(0, -1, 1, 0, -318.49, 1169.02)"/></g><path class="cls-1" d="M895.3,657.4V609.6h8.4v3.7h-4.6v40.3h4.6v3.8Z" transform="translate(-603.2 -374.1)"/><path class="cls-1" d="M915.2,637.8v-1.4a14.2,14.2,0,0,1,1.3-6.2,24.4,24.4,0,0,1,3.6-4.7,15.6,15.6,0,0,0,2.5-3.3,6.3,6.3,0,0,0,.6-2.7,6.8,6.8,0,0,0-1.8-4.8,5.6,5.6,0,0,0-4.1-2,5.2,5.2,0,0,0-4,1.8c-1.1,1.2-1.8,3.1-2.2,5.8l-3.8-.6c.3-3.6,1.4-6.3,3.2-8.1a9,9,0,0,1,6.8-2.7,9.5,9.5,0,0,1,7,2.9,10.4,10.4,0,0,1,2.8,7.3,9.3,9.3,0,0,1-1,4.5,20.2,20.2,0,0,1-3.6,5.1,15,15,0,0,0-3,4,18.4,18.4,0,0,0-.6,5.1Zm-.3,9.2v-5.2h4.3V647Z" transform="translate(-603.2 -374.1)"/><path class="cls-1" d="M939.5,657.4h-8.3v-3.8h4.5V613.3h-4.5v-3.7h8.3Z" transform="translate(-603.2 -374.1)"/><g id="rect1875-3" data-name="rect1875"><rect class="cls-1" x="671.6" y="607.1" width="101.5" height="34.14" transform="translate(-617.5 -357.1) rotate(-1.3)"/></g><path d="M676.4,628.2c-.1-3,.5-5.2,1.7-6.7a6,6,0,0,1,4.6-2.4,6.2,6.2,0,0,1,4.7,2.1,9.4,9.4,0,0,1,2,6.4c.1,3.1-.4,5.4-1.6,6.9a5.6,5.6,0,0,1-4.6,2.3,5.4,5.4,0,0,1-4.7-2.1C677.2,633.3,676.5,631.1,676.4,628.2Zm2.4-.1c.1,2.2.5,3.8,1.4,4.9a3.4,3.4,0,0,0,5.8-.2,8.5,8.5,0,0,0,1-4.9,8.2,8.2,0,0,0-1.3-4.9,3.7,3.7,0,0,0-3-1.5,3.3,3.3,0,0,0-2.8,1.7C679.1,624.3,678.8,625.9,678.8,628.1Z" transform="translate(-603.2 -374.1)"/><path d="M692,627.7c-.1-2.9.4-5.1,1.6-6.6a5.9,5.9,0,0,1,4.6-2.4,5.9,5.9,0,0,1,4.7,2.1,10,10,0,0,1,2.1,6.4c.1,3-.5,5.3-1.7,6.9a5.5,5.5,0,0,1-4.6,2.3,5.6,5.6,0,0,1-4.7-2.1C692.7,632.8,692.1,630.7,692,627.7Zm2.4,0a7.6,7.6,0,0,0,1.3,4.8,3.4,3.4,0,0,0,5.8-.1c.8-1.1,1.1-2.8,1.1-5a8.6,8.6,0,0,0-1.3-4.8,3.5,3.5,0,0,0-5.9.2A8.3,8.3,0,0,0,694.4,627.7Z" transform="translate(-603.2 -374.1)"/><path d="M708.6,635.8l-.7-23.4h2.4l.6,23.4Z" transform="translate(-603.2 -374.1)"/><path d="M714.2,630.5l2.4-.5a3.8,3.8,0,0,0,1.2,2.7,3.6,3.6,0,0,0,2.4.8,3.7,3.7,0,0,0,2.4-.9,2.6,2.6,0,0,0,.8-1.9,1.9,1.9,0,0,0-.8-1.5,5.8,5.8,0,0,0-2.4-.9,18,18,0,0,1-3.7-1.4,3.6,3.6,0,0,1-1.5-1.5,4.4,4.4,0,0,1-.6-2.3,4.8,4.8,0,0,1,1.3-3.5,5.7,5.7,0,0,1,3.8-1.5,8.2,8.2,0,0,1,2.8.5,4.4,4.4,0,0,1,1.8,1.5,7.1,7.1,0,0,1,.9,2.6l-2.3.5a2.7,2.7,0,0,0-3.1-2.7,2.9,2.9,0,0,0-2.2.7,1.8,1.8,0,0,0-.7,1.5,1.6,1.6,0,0,0,.7,1.5l2.6.9a21.3,21.3,0,0,1,3.8,1.4,4,4,0,0,1,1.4,1.5,5.1,5.1,0,0,1,.6,2.2,5.4,5.4,0,0,1-1.5,4,5.7,5.7,0,0,1-4.1,1.6C716.8,635.9,714.8,634.2,714.2,630.5Z" transform="translate(-603.2 -374.1)"/><path d="M738.1,635l-.4-14.8h-2.1v-2.2h2.1v-1.8a6.6,6.6,0,0,1,.3-3,4,4,0,0,1,1.2-1.6,4.8,4.8,0,0,1,2.2-.5,5.8,5.8,0,0,1,2.2.2l-.3,2.5h-1.4a1.8,1.8,0,0,0-1.5.6c-.3.3-.4,1-.4,2.1v1.5h2.7v2.2H740l.4,14.7Z" transform="translate(-603.2 -374.1)"/><path d="M744.4,626.3a10.3,10.3,0,0,1,1.7-6.7,6,6,0,0,1,9.3-.2c1.3,1.4,2,3.6,2,6.4s-.4,5.3-1.6,6.8a6,6,0,0,1-4.6,2.4,5.9,5.9,0,0,1-4.7-2.1Q744.6,630.7,744.4,626.3Zm2.4-.1c.1,2.2.5,3.8,1.4,4.9a3.7,3.7,0,0,0,3,1.5,3.5,3.5,0,0,0,2.8-1.7,8.3,8.3,0,0,0,1-4.9,7.6,7.6,0,0,0-1.3-4.8,3.4,3.4,0,0,0-5.8.1A8.5,8.5,0,0,0,746.8,626.2Z" transform="translate(-603.2 -374.1)"/><path d="M761.1,634.3l-.5-16.9h2.2v2.6a7.9,7.9,0,0,1,1.4-2.4,2.5,2.5,0,0,1,1.6-.6,3.5,3.5,0,0,1,2.4.8l-.7,2.7a3.2,3.2,0,0,0-1.8-.6,1.8,1.8,0,0,0-1.3.6,3.2,3.2,0,0,0-.9,1.5,19.8,19.8,0,0,0-.3,3.5l.2,8.9Z" transform="translate(-603.2 -374.1)"/><g id="rect1875-4" data-name="rect1875"><rect class="cls-6" x="387.9" y="263.8" width="62.9" height="34.14"/></g><path d="M995.8,666.2v-17h2.1v2.4a5.5,5.5,0,0,1,1.9-2.1,5.2,5.2,0,0,1,2.5-.7,4.6,4.6,0,0,1,2.1.5,4.2,4.2,0,0,1,1.5,1.1,4.8,4.8,0,0,1,.9,1.9,14,14,0,0,1,.3,3.4v10.5h-2.3V655.8a9.1,9.1,0,0,0-.3-2.7,2.2,2.2,0,0,0-1-1.3,2.8,2.8,0,0,0-1.6-.5,3.2,3.2,0,0,0-2.7,1.3,7.6,7.6,0,0,0-.9,4.3v9.3Z" transform="translate(-603.2 -374.1)"/><path d="M1016.6,663.6l.4,2.5-1.8.3a3.9,3.9,0,0,1-2-.5,2.4,2.4,0,0,1-1-1.4,11.1,11.1,0,0,1-.3-3.3v-9.8h-1.8v-2.2h1.8V645l2.4-1.7v5.9h2.4v2.2h-2.4v9.9a5.4,5.4,0,0,0,.3,1.8,1.1,1.1,0,0,0,1.1.6Z" transform="translate(-603.2 -374.1)"/><path d="M1019.5,666.1V649.2h2.1v2.5a5,5,0,0,1,1.5-2.3,2,2,0,0,1,1.5-.6,4,4,0,0,1,2.4.9l-.8,2.7a2.5,2.5,0,0,0-1.7-.7,2.2,2.2,0,0,0-1.4.6,2.2,2.2,0,0,0-.8,1.4,13.4,13.4,0,0,0-.5,3.5v8.9Z" transform="translate(-603.2 -374.1)"/><path d="M1028.2,657.6q0-4.4,1.8-6.6a5.9,5.9,0,0,1,9.3,0c1.3,1.4,1.9,3.6,1.9,6.4s-.6,5.3-1.8,6.8a6.1,6.1,0,0,1-4.7,2.3,5.8,5.8,0,0,1-4.6-2.3C1028.8,662.7,1028.2,660.5,1028.2,657.6Zm2.4,0a8.2,8.2,0,0,0,1.2,4.9,3.5,3.5,0,0,0,3,1.6,3.6,3.6,0,0,0,2.8-1.6,8.4,8.4,0,0,0,1.2-4.9,8.2,8.2,0,0,0-1.2-4.9,3.5,3.5,0,0,0-3-1.6,3.5,3.5,0,0,0-2.9,1.6A9.1,9.1,0,0,0,1030.6,657.6Z" transform="translate(-603.2 -374.1)"/><path d="M1044.6,666V642.6h2.3V666Z" transform="translate(-603.2 -374.1)"/></svg>