<svg id="Layer_1" data-name="Layer 1" xmlns="http://www.w3.org/2000/svg" viewBox="0 0 474.5 303.1"><defs><style>.cls-1{fill:#fff;}.cls-2{fill:#d10000;}.cls-3{fill:#ffd600;}.cls-4{fill:#00af47;}.cls-5{fill:#004fff;}</style></defs><title>title</title><path class="cls-1" d="M944.3,639.3c-1.4-3-3.1-7-3.2-10.4s1.8-3.7,2.1-5.6-.7-2.5-.8-4,1.5-3.9,1.5-5.9-.9-2.8.1-5.3l.3-.7v-5.9H888.7v54.4h55.6V639.4Z" transform="translate(-602.7 -373.6)"/><path class="cls-1" d="M825.6,582.3c-2.5,1.9-5.1,2.2-9.3,2.2-2.5,0-5.2,0-7.6-.2a41.9,41.9,0,0,0-4.8-.6,4.8,4.8,0,0,1-5.4-.3l-1.3-1.1h-5.5v73.8h96.9V582.3Z" transform="translate(-602.7 -373.6)"/><path class="cls-1" d="M1076.6,418a86.5,86.5,0,0,1,0-14.4c.1-.9.1-1.9.3-2.9V399l.3-3.3V373.6H648.9a9.7,9.7,0,0,1-3.7.5c-2.4-.2-3.5-.8-5.5-.4-4.9,1.8-8.5,2.3-13.8.7l-2.8-.8H602.7V556.4h474.5V436.7a101.7,101.7,0,0,1-.8-11A66.6,66.6,0,0,1,1076.6,418Z" transform="translate(-602.7 -373.6)"/><path class="cls-2" d="M702.6,603.9a1.9,1.9,0,0,1-2-1.1,3.9,3.9,0,0,1-.8-1.4h0l-.2-.4-6.7-6.7a28.7,28.7,0,0,1-5.7-5.3l-.6-1-26.2-26.2-34.3,34.4a18.4,18.4,0,0,1-1.7,2.2,18.1,18.1,0,0,1-3.3,2.8l-1.2,1.1a6.7,6.7,0,0,1-1.4,2.8c-.6,1-1.4,2.2-2.6,2.2h-.8l-12.2,12.1,57.5,57.5,7.9-7.8a10.5,10.5,0,0,1,3-3.9,2.4,2.4,0,0,1,1.3-.4l.5-.5a15.1,15.1,0,0,1,1.1-2.2,2.5,2.5,0,0,1,2.4-1.3l41.3-41.4Z" transform="translate(-602.7 -373.6)"/><path class="cls-1" d="M660.1,666l-47.2-47.1,47.2-47.2,47.1,47.2Z" transform="translate(-602.7 -373.6)"/><path class="cls-1" d="M1075.9,609.2a2.7,2.7,0,0,1-.7-.8c-2.7-3.5-3.6-7.9-4.2-12.2-.1-.6-.1-1.3-.2-2a56.9,56.9,0,0,0-86-19,20.1,20.1,0,0,1-2,5c0,.1-.1.2-.1.3s-.1.3-.2.5-3.1,5.9-5.4,3.6l-.2-.2a3.7,3.7,0,0,1-2.6,1.7,57,57,0,0,0-4.3,60.8,1.6,1.6,0,0,1,1.5.5,17.4,17.4,0,0,1,2.5,2.9,17.8,17.8,0,0,1,2.2,5.8,56.9,56.9,0,0,0,100.7-36.2A53.9,53.9,0,0,0,1075.9,609.2Z" transform="translate(-602.7 -373.6)"/><path d="M1020,671.7a51.9,51.9,0,1,1,51.9-51.8A51.9,51.9,0,0,1,1020,671.7Zm0-99.7a47.9,47.9,0,1,0,47.8,47.9A47.9,47.9,0,0,0,1020,572Z" transform="translate(-602.7 -373.6)"/><path d="M1020,672.2a52.4,52.4,0,1,1,52.4-52.3A52.4,52.4,0,0,1,1020,672.2Zm0-103.7a51.4,51.4,0,1,0,51.4,51.4A51.4,51.4,0,0,0,1020,568.5Zm0,99.7a48.4,48.4,0,1,1,48.3-48.3A48.4,48.4,0,0,1,1020,668.2Zm0-95.7a47.4,47.4,0,1,0,47.4,47.4A47.4,47.4,0,0,0,1020,572.5Z" transform="translate(-602.7 -373.6)"/><path d="M1022.1,626.7a86.4,86.4,0,0,1-3.7,10.6,69.4,69.4,0,0,1-12.4,1.9c-17.8.1-25.3-11.4-25.4-22-.1-13.7,10.4-23.4,26.4-23.5a54.2,54.2,0,0,1,12.2,1.7c.6,3.7,1.1,6.8,1.6,11l-2.5.5c-2.2-8-7.4-10.3-12.6-10.2-9.6,0-14.9,9.2-14.8,19.1.1,12.3,6.7,20.3,15.8,20.2,5.6,0,9.7-3.6,13-10.4Z" transform="translate(-602.7 -373.6)"/><path d="M1058.9,622.4c.1,10.8-7.5,16.2-15.3,16.3-10.5,0-15.7-7.5-15.8-14.8-.1-10.8,8.4-16.3,15.8-16.4A14.7,14.7,0,0,1,1058.9,622.4Zm-21.6-1c.1,8.2,2.8,14.7,7,14.6,2.5,0,5.2-1.7,5.1-11.5s-2.5-14.4-6.7-14.4S1037.3,613.7,1037.3,621.4Z" transform="translate(-602.7 -373.6)"/><path class="cls-3" d="M684.7,398.1c-2.8-8.5-7.8-18.4-18.8-18.4-7.6,0-13.1,5.6-13.1,13.3s4.9,11.7,16.7,17.6c14.2,6.9,23.8,14.5,23.8,27.8,0,15.3-13,27.3-32.7,27.3a45.6,45.6,0,0,1-13.6-1.9,59.9,59.9,0,0,1-8.2-2.9c-1.2-3.4-3-14.7-3.9-22.9l4.7-1.5c2.7,8.6,10.7,23.7,23.6,23.7,8.2,0,13.4-5.7,13.4-14.1s-5.9-13-16-18.4c-13.8-7-23.4-14.2-23.4-27.2,0-14.8,11.7-26.3,30.8-26.3a53.5,53.5,0,0,1,18.7,3.6c.6,5,1.5,10.9,2.6,19.2Z" transform="translate(-602.7 -373.6)"/><path class="cls-3" d="M796,380.9c-7.5.4-10.8,3.2-11.5,7.9s-1.2,9.2-1.2,18.8v14.6c0,14.3-2.2,25.6-9.7,33.7-6.2,6.5-15.3,9.8-24.9,9.8s-17.4-1.9-23.8-7-11.2-15.9-11.2-31.6V395.4c0-12.6-1.4-13.6-11.3-14.5v-4.7h40.5v4.7c-9.8.9-11.2,1.9-11.2,14.5v29.3c0,20.2,7.3,31.9,21.8,31.9,16.1,0,23.1-12.2,23.1-34.6V407.6a102.3,102.3,0,0,0-1.4-18.8c-.7-4.7-3.9-7.4-13-7.9v-4.7H796Z" transform="translate(-602.7 -373.6)"/><path class="cls-3" d="M842.1,376.2c10.7,0,18.4,1.5,23.6,5.2s10,11.1,10,19.8c0,18.1-13.4,26.3-27.5,28a39.6,39.6,0,0,1-5.7.3l-9.1-2.2v18.5c0,11.4,1.2,12.4,12.8,13.3v4.6H804.3v-4.6c10.1-.9,11.3-1.9,11.3-13.3V394.2c0-11.4-1.2-12.2-10.5-13.3v-4.7ZM833.4,422a22.2,22.2,0,0,0,7.3,1.3c4.9,0,15.7-3.5,15.7-21.7,0-15.2-8.6-20.2-16.8-20.2a7.6,7.6,0,0,0-5,1.4c-.8.8-1.2,2.1-1.2,4.1Z" transform="translate(-602.7 -373.6)"/><path class="cls-3" d="M958.9,441.4c-.8,6-3.6,18.3-4.7,22.3H885.5V459c11.4-1,12.8-1.8,12.8-13.2V394.1c0-11.7-1.4-12.4-10.9-13.2v-4.7h63.4c.1,2.4.8,11.8,1.4,20.2l-4.9.6c-1.3-4.7-3.1-9.1-5.5-11.5s-5.9-3.4-13.5-3.4h-6.4c-5,0-5.6.3-5.6,4.7v28.6h9.1c11.3,0,13-.7,14.9-10.1h4.9v27.2h-4.9c-1.9-9.7-3.5-10.3-14.9-10.3h-9.1v23.3c0,6.4.6,9.7,3.3,11.1s7,1.3,12.1,1.3c6.9,0,11.7-.9,14.9-4.3s5-7.3,7.6-13.2Z" transform="translate(-602.7 -373.6)"/><path class="cls-3" d="M1051,464.9h-4c-17-.8-22.3-4.6-27.7-13.1-3.5-5.5-7.1-12.8-11-19.8-2.1-4.2-4.6-5.8-8.9-5.9h-2.5v19.7c0,11,1.3,12.3,11.4,13.3v4.7H967.6V459c10.1-1,11.6-2.3,11.6-13.3V394c0-10.8-1.2-12.2-11-13.1v-4.7H1006c11.7,0,18.6,1.3,24,5.1s9.1,9.6,9.1,17.9c0,11.9-7.8,18.2-16.8,22,1.9,3.9,7,12.9,10.9,19.1s7.7,11.7,10.4,14.5,5.1,4.7,8.2,5.8Zm-50.6-44.2c5.6,0,10.2-.9,13.2-3.6,4.5-3.8,6.4-9.1,6.4-16,0-14.3-8.3-19.5-15.9-19.5-3.3,0-5.2.5-6,1.3s-1.2,2.2-1.2,5v32.8Z" transform="translate(-602.7 -373.6)"/><path class="cls-3" d="M696.8,472c-8.6,1-11.2,2.7-16.6,15.5-4.4,10.4-16.7,40.9-27.2,68.7h-6.7c-9.2-24.7-21.8-57.1-27.5-71-4-10.5-6.3-12.4-14.5-13.2v-4.8h40.1V472c-9.8,1.5-9.8,3-7.8,8.8,3.9,10.7,14.5,37.9,19.4,50.7h.4c7.4-19.6,13.2-35.1,17-46.8,2.9-9.4,2.9-11.3-8.1-12.7v-4.8h31.5Z" transform="translate(-602.7 -373.6)"/><path class="cls-3" d="M705.8,554.7V550c10-1,11.2-1.9,11.2-13.2V485.2c0-11.4-1.2-12.4-11.2-13.3v-4.7h40.4v4.7c-10,.9-11.2,1.9-11.2,13.3v51.6c0,11.3,1.2,12.2,11.2,13.2v4.7Z" transform="translate(-602.7 -373.6)"/><path class="cls-3" d="M809.2,489.1c-2.8-8.5-7.8-18.4-18.8-18.4-7.6,0-13.1,5.6-13.1,13.3s4.9,11.7,16.7,17.6c14.1,6.9,23.8,14.5,23.8,27.8,0,15.3-13,27.3-32.7,27.3a45.6,45.6,0,0,1-13.6-1.9,55.3,55.3,0,0,1-8.2-2.9c-1.2-3.4-3-14.7-3.9-22.9l4.7-1.5c2.7,8.6,10.6,23.7,23.6,23.7,8.2,0,13.4-5.7,13.4-14.1s-5.9-13-16-18.4c-13.9-7-23.4-14.2-23.4-27.2,0-14.8,11.7-26.3,30.8-26.3a53.5,53.5,0,0,1,18.7,3.6c.6,5,1.5,10.9,2.6,19.2Z" transform="translate(-602.7 -373.6)"/><path class="cls-3" d="M828.3,554.7V550c10-1,11.2-1.9,11.2-13.2V485.2c0-11.4-1.2-12.4-11.2-13.3v-4.7h40.4v4.7c-9.9.9-11.1,1.9-11.1,13.3v51.6c0,11.3,1.2,12.2,11.1,13.2v4.7Z" transform="translate(-602.7 -373.6)"/><path class="cls-3" d="M973,510c0,29.1-20.9,46.7-46.2,46.7-27,0-45.7-19.8-45.7-45.6,0-23.2,16.5-45.9,47.3-45.9C952.9,465.2,973,483.3,973,510Zm-71.3-1.5c0,23,10.3,42.6,27.5,42.6,12.8,0,23.2-12.6,23.2-37.3,0-26.8-11-43-26.4-43C912.4,470.8,901.7,485.2,901.7,508.5Z" transform="translate(-602.7 -373.6)"/><path class="cls-3" d="M1077.1,471.9c-7.3.4-10.1,2.1-10.8,8.3a193.3,193.3,0,0,0-1.2,22.4v53.5h-6.5l-56-67.1h-.4v30.3a186.3,186.3,0,0,0,1.1,21.8c.6,5.9,2.9,8.5,12.9,8.9v4.7h-33V550c7.5-.5,10.6-2.7,11.2-8.5a166.2,166.2,0,0,0,1.3-22.2V491.1c0-8.7-.3-11.3-2.8-14.4s-5.5-4.3-11.2-4.8v-4.7h24.9l51.5,59.1h.5V502.6a217.1,217.1,0,0,0-1.1-22.1c-.6-5.8-3.5-8.1-13.3-8.6v-4.7h32.9Z" transform="translate(-602.7 -373.6)"/><path class="cls-4" d="M832.9,582.9a3.6,3.6,0,0,1-3.1,1.3h-8.5a35.3,35.3,0,0,1-5,.3c-2.5,0-5.2,0-7.6-.2a33.4,33.4,0,0,0-4.3-.5c-.2,2.6-.4,6-.6,9.4h1.9c.7-2.6,1.3-4.4,2.2-5.3s1.7-1.4,6-1.4h1.8v24.9c0,4.4-.5,4.8-4.9,5.1v1.9h17.1v-1.9c-4.6-.3-5.1-.7-5.1-5.1V586.5h2.4c3,0,4.4.3,5.3,1.3s1.7,2.6,2.3,5.4h1.9c-.3-3.4-.5-8-.6-10.2Z" transform="translate(-602.7 -373.6)"/><path class="cls-4" d="M874,600.9c0,11.4-8.2,18.3-18,18.3s-17.9-7.8-17.9-17.9,6.4-17.9,18.5-17.9A17,17,0,0,1,874,600.9Zm-27.8-.6c0,9,4,16.6,10.7,16.6,5,0,9-4.8,9-14.5s-4.2-16.8-10.3-16.8S846.2,591.2,846.2,600.3Z" transform="translate(-602.7 -373.6)"/><path class="cls-4" d="M821.1,630.7c-.7-2.8-1.4-4.5-2.4-5.4s-2.2-1.3-5.3-1.3H811v24.9c0,4.4.5,4.8,5.2,5.1v1.9H799V654c4.4-.3,5-.7,5-5.1V624h-1.8c-4.3,0-5.3.6-6.1,1.4s-1.5,2.7-2.2,5.3H792c.2-3.8.5-7.7.6-10.3h1.3c.9,1.2,1.5,1.3,3,1.3h21.2a3.4,3.4,0,0,0,3-1.3h1.3c0,2.2.3,6.8.5,10.2Z" transform="translate(-602.7 -373.6)"/><path class="cls-4" d="M841.9,655.9V654c3.1-.5,3.3-1.1,2.5-3.4s-1.3-3.8-2.1-5.9H832.2c-.6,1.6-1.3,3.5-1.9,5.6s-.6,3.2,3.2,3.7v1.9H821.7V654c3.5-.4,4.1-1,5.8-5.4l10.8-27,2.7-.7c3.4,9.2,6.6,18.3,10,27.4,1.8,4.6,2.5,5.3,5.8,5.7v1.9Zm-4.5-25.4h-.1c-1.5,3.9-2.8,7.6-4.2,11.4h8.2Z" transform="translate(-602.7 -373.6)"/><path class="cls-4" d="M887.8,647c-.4,2.2-1.5,7.4-1.9,8.9H860.2V654c4.6-.3,5.1-.7,5.1-5.1V628.7c0-4.5-.5-4.8-4.5-5.2v-1.8h16.1v1.8c-4,.4-4.5.7-4.5,5.2v20.5c0,2.5.2,3.5,1.3,3.9a10.8,10.8,0,0,0,4,.5c2.2,0,4.1-.4,5.3-1.8a17.2,17.2,0,0,0,3-5.4Z" transform="translate(-602.7 -373.6)"/><path d="M681.3,612.5c-1-4.3-2.2-7.1-3.7-8.6s-3.6-2.1-8.5-2.1h-3.9v39.9c0,7.1.9,7.6,8.3,8.2v2.9H646v-2.9c7.1-.6,7.9-1.1,7.9-8.2V601.8h-2.8c-6.9,0-8.4,1-9.7,2.3s-2.4,4.3-3.5,8.5h-3.1c.4-6.1.9-12.3,1.1-16.6h2c1.3,2,2.4,2.1,4.8,2.1h33.8a5.5,5.5,0,0,0,4.9-2.1h2c.1,3.6.5,11,.9,16.4Z" transform="translate(-602.7 -373.6)"/><g id="rect1875"><rect class="cls-5" x="797.6" y="363.1" width="87.4" height="212.83" transform="translate(-311.3 887) rotate(-84.4)"/></g><path class="cls-1" d="M762.1,491.6l-13.4-61.5,7,.7,8.7,44.5c.6,3.5,1.2,6.8,1.6,10,1.1-3.2,2.3-6.3,3.5-9.5l17.4-42,6.6.6-24.8,57.8Z" transform="translate(-602.7 -373.6)"/><path class="cls-1" d="M793.2,494.5l4.1-43.2,6,.6-4.1,43.2Zm4.9-51.2.8-8.4,6,.6-.8,8.4Z" transform="translate(-602.7 -373.6)"/><path class="cls-1" d="M809,483l6.1-.6a10.8,10.8,0,0,0,2.2,7.1,9.2,9.2,0,0,0,6,2.8,9,9,0,0,0,6.3-1.4,6.4,6.4,0,0,0,2.6-4.7,4.9,4.9,0,0,0-1.5-4.1c-.8-.8-2.7-1.8-5.9-3.1a45,45,0,0,1-9-4.5,10.3,10.3,0,0,1-3.3-4.4,12.2,12.2,0,0,1-.7-5.8,11.9,11.9,0,0,1,4.4-8.7c2.5-2.1,5.9-2.9,10.1-2.5a14.7,14.7,0,0,1,6.8,2.1,10.6,10.6,0,0,1,4.2,4.2,18.2,18.2,0,0,1,1.6,7.1l-6,.4c-.1-4.8-2.4-7.4-7-7.8-2.6-.2-4.6.1-6,1a5.3,5.3,0,0,0-2.3,3.8,4.9,4.9,0,0,0,1.5,4,32.5,32.5,0,0,0,6.3,3.2c4.8,2,7.9,3.6,9.3,4.7a9,9,0,0,1,3,4.1,12.5,12.5,0,0,1,.7,5.9,13.5,13.5,0,0,1-4.9,9.7c-2.8,2.3-6.5,3.2-11.1,2.8C813.9,497.5,809.5,492.4,809,483Z" transform="translate(-602.7 -373.6)"/><path class="cls-1" d="M869.1,501.7l.6-6.3a15.8,15.8,0,0,1-5.4,5,12,12,0,0,1-6.5,1.2,11.1,11.1,0,0,1-10.4-9,36.5,36.5,0,0,1-.1-9.5l2.5-26.8,6,.6-2.2,23.9c-.5,4.5-.5,7.5-.2,9a7.1,7.1,0,0,0,2.1,3.9,6.6,6.6,0,0,0,4,1.7,8.4,8.4,0,0,0,7.4-2.9c1.8-1.8,2.9-5.5,3.5-10.9l2.1-23.2,6.1.6-4.1,43.2Z" transform="translate(-602.7 -373.6)"/><path class="cls-1" d="M909.2,500.1a21.3,21.3,0,0,1-6.8,4.1,14.7,14.7,0,0,1-6.9,1A12.4,12.4,0,0,1,887,501q-3-3.6-2.4-9.3a12.9,12.9,0,0,1,2.2-6.5,11.3,11.3,0,0,1,4.6-4.1,21.5,21.5,0,0,1,8.4-1.6,47.1,47.1,0,0,0,11-1.6l.2-1.8c.3-3-.1-5.1-1-6.4s-3.6-3-6.6-3.3-5,.2-6.5,1.2-2.7,3.1-3.6,6.2l-5.9-1.5c1.3-4.6,3.3-7.8,6.1-9.7s6.5-2.6,11.3-2.1,6.6,1.3,8.6,2.9a9.7,9.7,0,0,1,3.5,5.6,45,45,0,0,1,0,9.1l-1,9.8c-.6,6.8-.9,11.1-.8,12.9a19.1,19.1,0,0,0,1,5.3l-6.2-.5A18.4,18.4,0,0,1,909.2,500.1Zm1-16.4a35.2,35.2,0,0,1-10,1.8,21.7,21.7,0,0,0-5.5,1,5.9,5.9,0,0,0-2.5,2.2,6.3,6.3,0,0,0-1.2,3.4,6.6,6.6,0,0,0,1.4,5.1,7.3,7.3,0,0,0,5.2,2.4,10.8,10.8,0,0,0,5.9-1.1,10.3,10.3,0,0,0,4.4-4.1,22.3,22.3,0,0,0,2.1-8Z" transform="translate(-602.7 -373.6)"/><path class="cls-1" d="M925.1,507l5.6-59.7,6,.6L931,507.6Z" transform="translate(-602.7 -373.6)"/><path class="cls-4" d="M941.3,628.9c0-2.1,1.8-3.7,2.1-5.6s-.7-2.5-.8-4,1.5-3.9,1.5-5.9-.9-2.8.1-5.3l.3-.7v-5.9l-55.7-.2-.2,54.6h5.9V608.3h8.3v3.8h-4.6v40.3h4.6V656h27.5v-3.7h4.5V612.1h-4.5v-3.8h8.3v47.8h5.6v-17C943.1,636.1,941.4,632.2,941.3,628.9Zm-22.8,16.8h-4.3v-5.2h4.3Zm6.8-23.3a23.1,23.1,0,0,1-3.7,5,14.1,14.1,0,0,0-2.9,4,17.5,17.5,0,0,0-.7,5.1h-3.6v-1.4a14.6,14.6,0,0,1,1.2-6.2,24.8,24.8,0,0,1,3.7-4.7,11.1,11.1,0,0,0,2.4-3.3,6,6,0,0,0,.6-2.7,6.8,6.8,0,0,0-1.8-4.8,5.4,5.4,0,0,0-4.1-2,5.2,5.2,0,0,0-4,1.8c-1.1,1.2-1.8,3.2-2.1,5.8l-3.9-.5c.4-3.6,1.4-6.4,3.2-8.1a9.1,9.1,0,0,1,6.8-2.7,9.4,9.4,0,0,1,7,2.8,10,10,0,0,1,2.8,7.4A11.3,11.3,0,0,1,925.3,622.4Z" transform="translate(-602.7 -373.6)"/><g id="rect1875-2" data-name="rect1875"><rect class="cls-1" x="671.2" y="607.2" width="101.5" height="34.14" transform="translate(-617 -356.6) rotate(-1.3)"/></g><path d="M676,628.3c-.1-3,.5-5.2,1.6-6.7a6.2,6.2,0,0,1,4.6-2.4,6.3,6.3,0,0,1,4.8,2.1,10.6,10.6,0,0,1,2,6.4c.1,3.1-.5,5.3-1.7,6.9a5.5,5.5,0,0,1-4.6,2.3,5.6,5.6,0,0,1-4.7-2.1C676.7,633.4,676.1,631.2,676,628.3Zm2.4-.1c.1,2.2.5,3.8,1.3,4.8a3.7,3.7,0,0,0,3,1.6,3.6,3.6,0,0,0,2.8-1.7,7.8,7.8,0,0,0,1.1-4.9,9,9,0,0,0-1.3-4.9,3.7,3.7,0,0,0-3-1.5,3.5,3.5,0,0,0-2.9,1.7A8.3,8.3,0,0,0,678.4,628.2Z" transform="translate(-602.7 -373.6)"/><path d="M691.5,627.8c0-2.9.5-5.1,1.7-6.6a5.9,5.9,0,0,1,9.3-.3,10,10,0,0,1,2.1,6.4c0,3-.5,5.3-1.7,6.8a5.5,5.5,0,0,1-4.6,2.4,5.8,5.8,0,0,1-4.7-2.1Q691.6,632.2,691.5,627.8Zm2.4,0a8.6,8.6,0,0,0,1.4,4.8,3.2,3.2,0,0,0,3,1.5,3.5,3.5,0,0,0,2.8-1.7c.8-1.1,1.1-2.7,1.1-4.9a8.3,8.3,0,0,0-1.4-4.8,3.2,3.2,0,0,0-3-1.5,3.3,3.3,0,0,0-2.8,1.6C694.2,623.9,693.9,625.6,693.9,627.8Z" transform="translate(-602.7 -373.6)"/><path d="M708.1,635.9l-.6-23.4h2.3l.7,23.4Z" transform="translate(-602.7 -373.6)"/><path d="M713.8,630.6l2.3-.5a4.2,4.2,0,0,0,1.2,2.6,3.5,3.5,0,0,0,2.5.9,3.7,3.7,0,0,0,2.3-.9,2.2,2.2,0,0,0,.8-1.9,2.2,2.2,0,0,0-.7-1.6l-2.5-.9A18.2,18.2,0,0,1,716,627a4,4,0,0,1-1.4-1.5,5.1,5.1,0,0,1,.7-5.8,5.1,5.1,0,0,1,3.8-1.5,5.9,5.9,0,0,1,2.7.5,4.5,4.5,0,0,1,1.9,1.4,7.7,7.7,0,0,1,.9,2.7l-2.3.5c-.3-1.9-1.3-2.8-3.1-2.7a3.7,3.7,0,0,0-2.3.6,2.6,2.6,0,0,0-.7,1.6,2,2,0,0,0,.8,1.5,11.1,11.1,0,0,0,2.6.9,30.6,30.6,0,0,1,3.8,1.4,4.1,4.1,0,0,1,1.4,1.5,5.9,5.9,0,0,1-.9,6.2,5.7,5.7,0,0,1-4.2,1.6C716.4,636,714.4,634.2,713.8,630.6Z" transform="translate(-602.7 -373.6)"/><path d="M737.6,635l-.4-14.7h-2v-2.2h2.1v-1.8a8,8,0,0,1,.4-3,2.8,2.8,0,0,1,1.2-1.6,6.5,6.5,0,0,1,2.1-.6l2.3.3-.3,2.5h-1.4a1.8,1.8,0,0,0-1.5.6c-.3.3-.4,1-.4,2.1V618h2.7v2.2h-2.7L740,635Z" transform="translate(-602.7 -373.6)"/><path d="M744,626.4c-.1-2.9.4-5.2,1.6-6.7a5.8,5.8,0,0,1,4.6-2.3,5.4,5.4,0,0,1,4.7,2.1c1.3,1.4,2,3.5,2.1,6.4s-.5,5.3-1.7,6.8a5.9,5.9,0,0,1-4.6,2.4A6.2,6.2,0,0,1,746,633C744.7,631.5,744.1,629.3,744,626.4Zm2.4-.1a8.2,8.2,0,0,0,1.3,4.9,3.7,3.7,0,0,0,3,1.5,3.3,3.3,0,0,0,2.8-1.7c.8-1.1,1.1-2.7,1.1-4.9a9,9,0,0,0-1.3-4.9,4,4,0,0,0-3.1-1.5,3.5,3.5,0,0,0-2.8,1.7A8.3,8.3,0,0,0,746.4,626.3Z" transform="translate(-602.7 -373.6)"/><path d="M760.7,634.4l-.5-16.9h2.1V620a7.9,7.9,0,0,1,1.4-2.4,3.4,3.4,0,0,1,1.5-.7,4.5,4.5,0,0,1,2.5.9l-.8,2.7a2.9,2.9,0,0,0-1.7-.6,2.2,2.2,0,0,0-1.4.6,2.7,2.7,0,0,0-.8,1.5,10,10,0,0,0-.3,3.5l.2,8.8Z" transform="translate(-602.7 -373.6)"/><g id="rect1875-3" data-name="rect1875"><rect class="cls-3" x="1005" y="621.5" width="34.1" height="62.93" transform="translate(-307.2 1250.6) rotate(-85.8)"/></g><path d="M994.7,662.3l1.1-16.9H998l-.2,2.4a5.2,5.2,0,0,1,2-1.9,4.5,4.5,0,0,1,2.6-.5,3.6,3.6,0,0,1,2,.6,4.4,4.4,0,0,1,1.5,1.2,4.7,4.7,0,0,1,.7,1.9,19.9,19.9,0,0,1,0,3.5l-.7,10.4-2.3-.2.7-10.3a10.7,10.7,0,0,0-.1-2.7,2.8,2.8,0,0,0-.9-1.4,2.5,2.5,0,0,0-1.6-.6,3.4,3.4,0,0,0-2.8,1.1,7.7,7.7,0,0,0-1.3,4.2l-.6,9.3Z" transform="translate(-602.7 -373.6)"/><path d="M1015.6,661.2v2.5a5.2,5.2,0,0,1-1.7.2,4.7,4.7,0,0,1-2-.6,2.4,2.4,0,0,1-.9-1.4,11,11,0,0,1-.1-3.4l.7-9.8H1010v-2.2h1.8l.3-4.2,2.4-1.5-.4,5.9h2.4l-.2,2.3-2.3-.2-.7,9.9a3.1,3.1,0,0,0,.1,1.8.9.9,0,0,0,1,.6Z" transform="translate(-602.7 -373.6)"/><path d="M1018.3,664l1.2-17,2.1.2-.2,2.6a8.6,8.6,0,0,1,1.6-2.3,2.4,2.4,0,0,1,1.6-.5,3.8,3.8,0,0,1,2.3,1.1l-.9,2.6a3.1,3.1,0,0,0-1.7-.7,1.8,1.8,0,0,0-1.4.4,3,3,0,0,0-1,1.4,12.8,12.8,0,0,0-.7,3.5l-.6,8.8Z" transform="translate(-602.7 -373.6)"/><path d="M1027.5,656.1c.2-2.9,1-5.1,2.3-6.5a6,6,0,0,1,4.8-1.9,5.6,5.6,0,0,1,4.5,2.6c1.2,1.5,1.6,3.7,1.4,6.5s-.9,5.3-2.3,6.7a5.9,5.9,0,0,1-9.3-.7C1027.8,661.3,1027.3,659,1027.5,656.1Zm2.4.2a8.4,8.4,0,0,0,.9,4.9,3.2,3.2,0,0,0,2.8,1.8,3.6,3.6,0,0,0,3-1.4,7.6,7.6,0,0,0,1.5-4.8,7.9,7.9,0,0,0-.8-4.9,3.9,3.9,0,0,0-2.9-1.8,3.6,3.6,0,0,0-3,1.4A9.1,9.1,0,0,0,1029.9,656.3Z" transform="translate(-602.7 -373.6)"/><path d="M1043.3,665.7l1.6-23.3h2.3l-1.6,23.4Z" transform="translate(-602.7 -373.6)"/></svg>