<?xml version="1.0" encoding="utf-8"?>
<!-- Generator: Adobe Illustrator 22.0.0, SVG Export Plug-In . SVG Version: 6.00 Build 0)  -->
<svg version="1.1" id="Layer_1" xmlns="http://www.w3.org/2000/svg" xmlns:xlink="http://www.w3.org/1999/xlink" x="0px" y="0px"
	 viewBox="0 0 474.5 303.1" style="enable-background:new 0 0 474.5 303.1;" xml:space="preserve">
<style type="text/css">
	.st0{fill:#FFFFFF;}
	.st1{fill:#D10000;}
	.st2{fill:#FFD600;}
	.st3{fill:#00AF47;}
	.st4{fill:#004FFF;}
</style>
<title>title</title>
<path class="st0" d="M341.6,265.7c-1.4-3-3.1-7-3.2-10.4s1.8-3.7,2.1-5.6s-0.7-2.5-0.8-4s1.5-3.9,1.5-5.9s-0.9-2.8,0.1-5.3l0.3-0.7
	v-5.9H286v54.4h55.6v-16.5V265.7z"/>
<path class="st0" d="M222.9,208.7c-2.5,1.9-5.1,2.2-9.3,2.2c-2.5,0-5.2,0-7.6-0.2c-1.6-0.3-3.2-0.5-4.8-0.6c-1.7,1-3.8,0.9-5.4-0.3
	l-1.3-1.1H189v73.8h96.9v-73.8H222.9z"/>
<path class="st0" d="M473.9,46c-0.4-4.7-0.4-9.4,0-14.1c0.1-0.9,0.1-1.9,0.3-2.8v-1.7l0.3-3.2V2.6H46.2C45,3,43.8,3.2,42.5,3.1
	C40.1,2.9,39,2.3,37,2.7C32.1,4.5,28.5,5,23.2,3.4l-2.8-0.8H0v178.5h474.5V64.2c-0.5-3.6-0.7-7.1-0.8-10.7
	C473.6,51,473.7,48.5,473.9,46z"/>
<path class="st1" d="M99.9,230.3c-0.8,0.1-1.7-0.3-2-1.1c-0.4-0.4-0.6-0.9-0.8-1.4l0,0l-0.2-0.4l-6.7-6.7c-2.1-1.5-4-3.3-5.7-5.3
	l-0.6-1l-26.2-26.2l-34.3,34.4c-0.5,0.8-1.1,1.5-1.7,2.2c-1,1.1-2.1,2-3.3,2.8l-1.2,1.1c-0.2,1-0.7,2-1.4,2.8
	c-0.6,1-1.4,2.2-2.6,2.2h-0.8L0.2,245.8l57.5,57.5l7.9-7.8c0.7-1.5,1.7-2.9,3-3.9c0.4-0.3,0.8-0.4,1.3-0.4l0.5-0.5
	c0.3-0.8,0.7-1.5,1.1-2.2c0.5-0.9,1.4-1.4,2.4-1.3l41.3-41.4L99.9,230.3z"/>
<path class="st0" d="M57.4,292.4l-47.2-47.1l47.2-47.2l47.1,47.2L57.4,292.4z"/>
<path class="st0" d="M473.2,235.6c-0.3-0.2-0.5-0.5-0.7-0.8c-2.7-3.5-3.6-7.9-4.2-12.2c-0.1-0.6-0.1-1.3-0.2-2
	c-14.2-28-48.4-39.3-76.5-25.1c-3.4,1.7-6.6,3.7-9.5,6.1c-0.4,1.7-1.1,3.4-2,5c0,0.1-0.1,0.2-0.1,0.3s-0.1,0.3-0.2,0.5
	s-3.1,5.9-5.4,3.6l-0.2-0.2c-0.6,0.9-1.5,1.5-2.6,1.7c-13.1,17.7-14.7,41.4-4.3,60.8c0.6-0.1,1.1,0.1,1.5,0.5
	c0.9,0.9,1.8,1.8,2.5,2.9c1.1,1.8,1.8,3.8,2.2,5.8c20.1,24.2,55.9,27.5,80.1,7.5c13-10.8,20.5-26.8,20.6-43.7
	C474.2,242.7,473.9,239.1,473.2,235.6z"/>
<path d="M417.3,298.1c-28.7,0-51.9-23.2-51.9-51.9c0-28.7,23.2-51.9,51.9-51.9s51.9,23.2,51.9,51.9c0,0,0,0.1,0,0.1
	C469.1,274.9,445.9,298.1,417.3,298.1z M417.3,198.4c-26.5-0.1-47.9,21.3-48,47.8c-0.1,26.5,21.3,47.9,47.8,48
	c26.5,0.1,47.9-21.3,48-47.8c0,0,0-0.1,0-0.1C465.1,219.9,443.7,198.5,417.3,198.4z"/>
<path d="M417.3,298.6c-28.9,0-52.4-23.5-52.4-52.4c0-28.9,23.5-52.4,52.4-52.4c28.9,0,52.4,23.5,52.4,52.4c0,0,0,0.1,0,0.1
	C469.6,275.2,446.2,298.6,417.3,298.6z M417.3,194.9c-28.4,0-51.4,23-51.4,51.4s23,51.4,51.4,51.4c28.4,0,51.4-23,51.4-51.4
	C468.7,217.9,445.7,194.9,417.3,194.9C417.3,194.9,417.3,194.9,417.3,194.9z M417.3,294.6c-26.7,0.1-48.4-21.6-48.5-48.3
	c-0.1-26.7,21.6-48.4,48.3-48.5c26.7-0.1,48.4,21.6,48.5,48.3c0,0.1,0,0.1,0,0.2C465.5,273,444,294.5,417.3,294.6z M417.3,198.9
	c-26.2,0-47.4,21.2-47.4,47.4s21.2,47.4,47.4,47.4c26.2,0,47.4-21.2,47.4-47.4S443.5,198.9,417.3,198.9
	C417.3,198.9,417.3,198.9,417.3,198.9z"/>
<path d="M419.4,253.1c-1,3.6-2.2,7.2-3.7,10.6c-4.1,1-8.2,1.6-12.4,1.9c-17.8,0.1-25.3-11.4-25.4-22c-0.1-13.7,10.4-23.4,26.4-23.5
	c4.1,0.1,8.2,0.7,12.2,1.7c0.6,3.7,1.1,6.8,1.6,11l-2.5,0.5c-2.2-8-7.4-10.3-12.6-10.2c-9.6,0-14.9,9.2-14.8,19.1
	c0.1,12.3,6.7,20.3,15.8,20.2c5.6,0,9.7-3.6,13-10.4L419.4,253.1z"/>
<path d="M456.2,248.8c0.1,10.8-7.5,16.2-15.3,16.3c-10.5,0-15.7-7.5-15.8-14.8c-0.1-10.8,8.4-16.3,15.8-16.4c8.1-0.3,15,6,15.3,14.1
	C456.2,248.3,456.2,248.5,456.2,248.8z M434.6,247.8c0.1,8.2,2.8,14.7,7,14.6c2.5,0,5.2-1.7,5.1-11.5s-2.5-14.4-6.7-14.4
	S434.6,240.1,434.6,247.8z"/>
<path class="st2" d="M82,24.5C79.2,16,74.2,6.1,63.2,6.1c-7.6,0-13.1,5.6-13.1,13.3S55,31.1,66.8,37C81,43.9,90.6,51.5,90.6,64.8
	c0,15.3-13,27.3-32.7,27.3c-4.6,0.1-9.2-0.6-13.6-1.9c-2.8-0.8-5.5-1.7-8.2-2.9c-1.2-3.4-3-14.7-3.9-22.9l4.7-1.5
	c2.7,8.6,10.7,23.7,23.6,23.7c8.2,0,13.4-5.7,13.4-14.1s-5.9-13-16-18.4c-13.8-7-23.4-14.2-23.4-27.2c0-14.8,11.7-26.3,30.8-26.3
	C71.7,0.7,78,1.9,84,4.2c0.6,5,1.5,10.9,2.6,19.2L82,24.5z"/>
<path class="st2" d="M193.3,7.3c-7.5,0.4-10.8,3.2-11.5,7.9s-1.2,9.2-1.2,18.8v14.6c0,14.3-2.2,25.6-9.7,33.7
	c-6.2,6.5-15.3,9.8-24.9,9.8s-17.4-1.9-23.8-7S111,69.2,111,53.5V21.8c0-12.6-1.4-13.6-11.3-14.5V2.6h40.5v4.7
	C130.4,8.2,129,9.2,129,21.8v29.3c0,20.2,7.3,31.9,21.8,31.9c16.1,0,23.1-12.2,23.1-34.6V34c0.1-6.3-0.4-12.6-1.4-18.8
	c-0.7-4.7-3.9-7.4-13-7.9V2.6h33.8V7.3z"/>
<path class="st2" d="M239.4,2.6c10.7,0,18.4,1.5,23.6,5.2s10,11.1,10,19.8c0,18.1-13.4,26.3-27.5,28c-1.9,0.2-3.8,0.3-5.7,0.3
	l-9.1-2.2v18.5c0,11.4,1.2,12.4,12.8,13.3v4.6h-41.9v-4.6c10.1-0.9,11.3-1.9,11.3-13.3V20.6c0-11.4-1.2-12.2-10.5-13.3V2.6H239.4z
	 M230.7,48.4c2.3,0.8,4.8,1.3,7.3,1.3c4.9,0,15.7-3.5,15.7-21.7c0-15.2-8.6-20.2-16.8-20.2c-1.8-0.1-3.5,0.4-5,1.4
	c-0.8,0.8-1.2,2.1-1.2,4.1V48.4z"/>
<path class="st2" d="M356.2,67.8c-0.8,6-3.6,18.3-4.7,22.3h-68.7v-4.7c11.4-1,12.8-1.8,12.8-13.2V20.5c0-11.7-1.4-12.4-10.9-13.2
	V2.6h63.4c0.1,2.4,0.8,11.8,1.4,20.2l-4.9,0.6c-1.3-4.7-3.1-9.1-5.5-11.5s-5.9-3.4-13.5-3.4h-6.4c-5,0-5.6,0.3-5.6,4.7v28.6h9.1
	c11.3,0,13-0.7,14.9-10.1h4.9v27.2h-4.9c-1.9-9.7-3.5-10.3-14.9-10.3h-9.1v23.3c0,6.4,0.6,9.7,3.3,11.1s7,1.3,12.1,1.3
	c6.9,0,11.7-0.9,14.9-4.3s5-7.3,7.6-13.2L356.2,67.8z"/>
<path class="st2" d="M448.3,91.3h-4c-17-0.8-22.3-4.6-27.7-13.1c-3.5-5.5-7.1-12.8-11-19.8c-2.1-4.2-4.6-5.8-8.9-5.9h-2.5v19.7
	c0,11,1.3,12.3,11.4,13.3v4.7h-40.7v-4.8c10.1-1,11.6-2.3,11.6-13.3V20.4c0-10.8-1.2-12.2-11-13.1V2.6h37.8c11.7,0,18.6,1.3,24,5.1
	s9.1,9.6,9.1,17.9c0,11.9-7.8,18.2-16.8,22c1.9,3.9,7,12.9,10.9,19.1s7.7,11.7,10.4,14.5s5.1,4.7,8.2,5.8L448.3,91.3z M397.7,47.1
	c5.6,0,10.2-0.9,13.2-3.6c4.5-3.8,6.4-9.1,6.4-16C417.3,13.2,409,8,401.4,8c-3.3,0-5.2,0.5-6,1.3s-1.2,2.2-1.2,5v32.8L397.7,47.1z"
	/>
<path class="st2" d="M94.1,98.4c-8.6,1-11.2,2.7-16.6,15.5c-4.4,10.4-16.7,40.9-27.2,68.7h-6.7c-9.2-24.7-21.8-57.1-27.5-71
	c-4-10.5-6.3-12.4-14.5-13.2v-4.8h40.1v4.8c-9.8,1.5-9.8,3-7.8,8.8c3.9,10.7,14.5,37.9,19.4,50.7h0.4c7.4-19.6,13.2-35.1,17-46.8
	c2.9-9.4,2.9-11.3-8.1-12.7v-4.8h31.5L94.1,98.4z"/>
<path class="st2" d="M103.1,181.1v-4.7c10-1,11.2-1.9,11.2-13.2v-51.6c0-11.4-1.2-12.4-11.2-13.3v-4.7h40.4v4.7
	c-10,0.9-11.2,1.9-11.2,13.3v51.6c0,11.3,1.2,12.2,11.2,13.2v4.7H103.1z"/>
<path class="st2" d="M206.5,115.5c-2.8-8.5-7.8-18.4-18.8-18.4c-7.6,0-13.1,5.6-13.1,13.3s4.9,11.7,16.7,17.6
	c14.1,6.9,23.8,14.5,23.8,27.8c0,15.3-13,27.3-32.7,27.3c-4.6,0.1-9.2-0.6-13.6-1.9c-2.8-0.7-5.5-1.7-8.2-2.9
	c-1.2-3.4-3-14.7-3.9-22.9l4.7-1.5c2.7,8.6,10.6,23.7,23.6,23.7c8.2,0,13.4-5.7,13.4-14.1s-5.9-13-16-18.4
	c-13.9-7-23.4-14.2-23.4-27.2c0-14.8,11.7-26.3,30.8-26.3c6.4,0.1,12.7,1.3,18.7,3.6c0.6,5,1.5,10.9,2.6,19.2L206.5,115.5z"/>
<path class="st2" d="M225.6,181.1v-4.7c10-1,11.2-1.9,11.2-13.2v-51.6c0-11.4-1.2-12.4-11.2-13.3v-4.7H266v4.7
	c-9.9,0.9-11.1,1.9-11.1,13.3v51.6c0,11.3,1.2,12.2,11.1,13.2v4.7H225.6z"/>
<path class="st2" d="M370.3,136.4c0,29.1-20.9,46.7-46.2,46.7c-27,0-45.7-19.8-45.7-45.6c0-23.2,16.5-45.9,47.3-45.9
	C350.2,91.6,370.3,109.7,370.3,136.4z M299,134.9c0,23,10.3,42.6,27.5,42.6c12.8,0,23.2-12.6,23.2-37.3c0-26.8-11-43-26.4-43
	C309.7,97.2,299,111.6,299,134.9z"/>
<path class="st2" d="M474.4,98.3c-7.3,0.4-10.1,2.1-10.8,8.3c-0.8,7.4-1.2,14.9-1.2,22.4v53.5h-6.5l-56-67.1h-0.4v30.3
	c-0.1,7.3,0.3,14.6,1.1,21.8c0.6,5.9,2.9,8.5,12.9,8.9v4.7h-33v-4.7c7.5-0.5,10.6-2.7,11.2-8.5c0.9-7.4,1.4-14.8,1.3-22.2v-28.2
	c0-8.7-0.3-11.3-2.8-14.4s-5.5-4.3-11.2-4.8v-4.7h24.9l51.5,59.1h0.5V129c0-7.4-0.4-14.8-1.1-22.1c-0.6-5.8-3.5-8.1-13.3-8.6v-4.7
	h32.9V98.3z"/>
<path class="st3" d="M230.2,209.3c-0.8,0.9-1.9,1.4-3.1,1.3h-8.5c-1.7,0.2-3.3,0.3-5,0.3c-2.5,0-5.2,0-7.6-0.2
	c-1.4-0.3-2.9-0.4-4.3-0.5c-0.2,2.6-0.4,6-0.6,9.4h1.9c0.7-2.6,1.3-4.4,2.2-5.3s1.7-1.4,6-1.4h1.8v24.9c0,4.4-0.5,4.8-4.9,5.1v1.9
	h17.1v-1.9c-4.6-0.3-5.1-0.7-5.1-5.1v-24.9h2.4c3,0,4.4,0.3,5.3,1.3s1.7,2.6,2.3,5.4h1.9c-0.3-3.4-0.5-8-0.6-10.2L230.2,209.3z"/>
<path class="st3" d="M271.3,227.3c0,11.4-8.2,18.3-18,18.3s-17.9-7.8-17.9-17.9s6.4-17.9,18.5-17.9c9.4-0.2,17.2,7.2,17.4,16.6
	C271.3,226.7,271.3,227,271.3,227.3z M243.5,226.7c0,9,4,16.6,10.7,16.6c5,0,9-4.8,9-14.5S259,212,252.9,212
	S243.5,217.6,243.5,226.7L243.5,226.7z"/>
<path class="st3" d="M218.4,257.1c-0.7-2.8-1.4-4.5-2.4-5.4s-2.2-1.3-5.3-1.3h-2.4v24.9c0,4.4,0.5,4.8,5.2,5.1v1.9h-17.2v-1.9
	c4.4-0.3,5-0.7,5-5.1v-24.9h-1.8c-4.3,0-5.3,0.6-6.1,1.4s-1.5,2.7-2.2,5.3h-1.9c0.2-3.8,0.5-7.7,0.6-10.3h1.3c0.9,1.2,1.5,1.3,3,1.3
	h21.2c1.2,0.1,2.3-0.4,3-1.3h1.3c0,2.2,0.3,6.8,0.5,10.2L218.4,257.1z"/>
<path class="st3" d="M239.2,282.3v-1.9c3.1-0.5,3.3-1.1,2.5-3.4s-1.3-3.8-2.1-5.9h-10.1c-0.6,1.6-1.3,3.5-1.9,5.6s-0.6,3.2,3.2,3.7
	v1.9H219v-1.9c3.5-0.4,4.1-1,5.8-5.4l10.8-27l2.7-0.7c3.4,9.2,6.6,18.3,10,27.4c1.8,4.6,2.5,5.3,5.8,5.7v1.9H239.2z M234.7,256.9
	L234.7,256.9c-1.6,3.9-2.9,7.6-4.3,11.4h8.2L234.7,256.9z"/>
<path class="st3" d="M285.1,273.4c-0.4,2.2-1.5,7.4-1.9,8.9h-25.7v-1.9c4.6-0.3,5.1-0.7,5.1-5.1v-20.2c0-4.5-0.5-4.8-4.5-5.2v-1.8
	h16.1v1.8c-4,0.4-4.5,0.7-4.5,5.2v20.5c0,2.5,0.2,3.5,1.3,3.9c1.3,0.4,2.6,0.6,4,0.5c2.2,0,4.1-0.4,5.3-1.8c1.3-1.6,2.3-3.4,3-5.4
	L285.1,273.4z"/>
<path d="M78.6,238.9c-1-4.3-2.2-7.1-3.7-8.6s-3.6-2.1-8.5-2.1h-3.9v39.9c0,7.1,0.9,7.6,8.3,8.2v2.9H43.3v-2.9
	c7.1-0.6,7.9-1.1,7.9-8.2v-39.9h-2.8c-6.9,0-8.4,1-9.7,2.3s-2.4,4.3-3.5,8.5h-3.1c0.4-6.1,0.9-12.3,1.1-16.6h2
	c1.3,2,2.4,2.1,4.8,2.1h33.8c1.9,0.2,3.7-0.6,4.9-2.1h2c0.1,3.6,0.5,11,0.9,16.4L78.6,238.9z"/>
<g id="rect1875">
	
		<rect x="194.4" y="-10.9" transform="matrix(9.758288e-02 -0.9952 0.9952 9.758288e-02 119.7632 323.144)" class="st4" width="87.4" height="212.8"/>
</g>
<path class="st0" d="M159.4,118L146,56.5l7,0.7l8.7,44.5c0.6,3.5,1.2,6.8,1.6,10c1.1-3.2,2.3-6.3,3.5-9.5l17.4-42l6.6,0.6L166,118.6
	L159.4,118z"/>
<path class="st0" d="M190.5,120.9l4.1-43.2l6,0.6l-4.1,43.2L190.5,120.9z M195.4,69.7l0.8-8.4l6,0.6l-0.8,8.4L195.4,69.7z"/>
<path class="st0" d="M206.3,109.4l6.1-0.6c-0.1,2.6,0.6,5.1,2.2,7.1c1.6,1.6,3.7,2.6,6,2.8c2.2,0.3,4.4-0.2,6.3-1.4
	c1.5-1.1,2.5-2.8,2.6-4.7c0.2-1.5-0.4-3-1.5-4.1c-0.8-0.8-2.7-1.8-5.9-3.1c-3.2-1.2-6.2-2.7-9-4.5c-1.5-1.1-2.6-2.7-3.3-4.4
	c-0.7-1.8-0.9-3.8-0.7-5.8c0.2-3.4,1.8-6.6,4.4-8.7c2.5-2.1,5.9-2.9,10.1-2.5c2.4,0.1,4.7,0.9,6.8,2.1c1.8,1,3.2,2.4,4.2,4.2
	c1,2.2,1.6,4.6,1.6,7.1l-6,0.4c-0.1-4.8-2.4-7.4-7-7.8c-2.6-0.2-4.6,0.1-6,1c-1.3,0.9-2.1,2.3-2.3,3.8c-0.1,1.5,0.4,3,1.5,4
	c2,1.3,4.1,2.4,6.3,3.2c4.8,2,7.9,3.6,9.3,4.7c1.4,1.1,2.4,2.5,3,4.1c0.7,1.9,0.9,3.9,0.7,5.9c-0.2,3.8-2,7.3-4.9,9.7
	c-2.8,2.3-6.5,3.2-11.1,2.8C211.2,123.9,206.8,118.8,206.3,109.4z"/>
<path class="st0" d="M266.4,128.1l0.6-6.3c-1.4,2.1-3.2,3.8-5.4,5c-2,1-4.3,1.4-6.5,1.2c-5.1-0.2-9.4-4-10.4-9
	c-0.4-3.1-0.5-6.3-0.1-9.5l2.5-26.8l6,0.6l-2.2,23.9c-0.5,4.5-0.5,7.5-0.2,9c0.3,1.5,1,2.9,2.1,3.9c1.1,1,2.5,1.6,4,1.7
	c2.8,0.3,5.6-0.8,7.4-2.9c1.8-1.8,2.9-5.5,3.5-10.9l2.1-23.2l6.1,0.6l-4.1,43.2L266.4,128.1z"/>
<path class="st0" d="M306.5,126.5c-2,1.8-4.3,3.2-6.8,4.1c-2.2,0.9-4.6,1.2-6.9,1c-3.3-0.2-6.3-1.7-8.5-4.2c-2-2.4-2.8-5.5-2.4-9.3
	c0.1-2.3,0.9-4.6,2.2-6.5c1.1-1.8,2.7-3.2,4.6-4.1c2.7-1.1,5.5-1.6,8.4-1.6c3.7-0.1,7.4-0.6,11-1.6l0.2-1.8c0.3-3-0.1-5.1-1-6.4
	s-3.6-3-6.6-3.3s-5,0.2-6.5,1.2s-2.7,3.1-3.6,6.2l-5.9-1.5c1.3-4.6,3.3-7.8,6.1-9.7s6.5-2.6,11.3-2.1s6.6,1.3,8.6,2.9
	c1.8,1.4,3,3.4,3.5,5.6c0.3,3,0.3,6.1,0,9.1l-1,9.8c-0.6,6.8-0.9,11.1-0.8,12.9c0.1,1.8,0.4,3.6,1,5.3l-6.2-0.5
	C306.7,130.2,306.5,128.4,306.5,126.5z M307.5,110.1c-3.2,1.1-6.6,1.7-10,1.8c-1.9,0.1-3.7,0.4-5.5,1c-1,0.5-1.9,1.2-2.5,2.2
	c-0.7,1-1.1,2.2-1.2,3.4c-0.3,1.8,0.2,3.7,1.4,5.1c1.3,1.5,3.2,2.3,5.2,2.4c2,0.2,4.1-0.2,5.9-1.1c1.8-0.9,3.4-2.3,4.4-4.1
	c1.2-2.5,1.9-5.2,2.1-8L307.5,110.1z"/>
<path class="st0" d="M322.4,133.4l5.6-59.7l6,0.6l-5.7,59.7L322.4,133.4z"/>
<path class="st3" d="M338.6,255.3c0-2.1,1.8-3.7,2.1-5.6s-0.7-2.5-0.8-4s1.5-3.9,1.5-5.9s-0.9-2.8,0.1-5.3l0.3-0.7v-5.9l-55.7-0.2
	l-0.2,54.6h5.9v-47.6h8.3v3.8h-4.6v40.3h4.6v3.6h27.5v-3.7h4.5v-40.2h-4.5v-3.8h8.3v47.8h5.6v-17
	C340.4,262.5,338.7,258.6,338.6,255.3z M315.8,272.1h-4.3v-5.2h4.3V272.1z M322.6,248.8c-1,1.8-2.2,3.5-3.7,5
	c-1.2,1.2-2.2,2.5-2.9,4c-0.5,1.7-0.7,3.4-0.7,5.1h-3.6v-1.4c-0.1-2.1,0.4-4.2,1.2-6.2c1-1.7,2.3-3.3,3.7-4.7c1-0.9,1.8-2.1,2.4-3.3
	c0.4-0.8,0.6-1.8,0.6-2.7c0-1.8-0.6-3.5-1.8-4.8c-1-1.2-2.5-2-4.1-2c-1.5,0-3,0.6-4,1.8c-1.1,1.2-1.8,3.2-2.1,5.8l-3.9-0.5
	c0.4-3.6,1.4-6.4,3.2-8.1c1.8-1.8,4.3-2.8,6.8-2.7c2.6-0.1,5.2,0.9,7,2.8c1.9,2,2.9,4.7,2.8,7.4
	C323.5,245.8,323.2,247.4,322.6,248.8z"/>
<g id="rect1875-2">
	
		<rect x="68.2" y="234.1" transform="matrix(0.9997 -2.268733e-02 2.268733e-02 0.9997 -5.6669 2.7628)" class="st0" width="101.5" height="34.1"/>
</g>
<path d="M73.3,254.7c-0.1-3,0.5-5.2,1.6-6.7c1.1-1.4,2.8-2.3,4.6-2.4c1.8,0,3.6,0.7,4.8,2.1c1.3,1.9,2,4.1,2,6.4
	c0.1,3.1-0.5,5.3-1.7,6.9c-1.1,1.5-2.8,2.3-4.6,2.3c-1.8,0.1-3.6-0.7-4.7-2.1C74,259.8,73.4,257.6,73.3,254.7z M75.7,254.6
	c0.1,2.2,0.5,3.8,1.3,4.8c0.7,1,1.8,1.6,3,1.6c1.2-0.1,2.2-0.7,2.8-1.7c0.9-1.5,1.3-3.2,1.1-4.9c0-1.7-0.4-3.4-1.3-4.9
	c-0.7-1-1.8-1.5-3-1.5c-1.2,0-2.3,0.7-2.9,1.7C75.9,251.2,75.5,252.9,75.7,254.6z"/>
<path d="M88.8,254.2c0-2.9,0.5-5.1,1.7-6.6c1.9-2.6,5.6-3.2,8.2-1.3c0.4,0.3,0.7,0.6,1.1,1c1.4,1.8,2.2,4.1,2.1,6.4
	c0,3-0.5,5.3-1.7,6.8c-1,1.5-2.8,2.4-4.6,2.4c-1.8,0.1-3.5-0.7-4.7-2.1C89.6,259.3,88.9,257.1,88.8,254.2z M91.2,254.2
	c0,1.7,0.5,3.4,1.4,4.8c0.6,1,1.8,1.6,3,1.5c1.2-0.1,2.2-0.7,2.8-1.7c0.8-1.1,1.1-2.7,1.1-4.9c0-1.7-0.5-3.4-1.4-4.8
	c-0.6-1-1.8-1.6-3-1.5c-1.1,0-2.2,0.6-2.8,1.6C91.5,250.3,91.2,252,91.2,254.2z"/>
<path d="M105.4,262.3l-0.6-23.4h2.3l0.7,23.4H105.4z"/>
<path d="M111.1,257l2.3-0.5c0.1,1,0.5,1.9,1.2,2.6c0.7,0.6,1.6,0.9,2.5,0.9c0.8,0,1.7-0.3,2.3-0.9c0.6-0.5,0.9-1.2,0.8-1.9
	c0-0.6-0.3-1.2-0.7-1.6l-2.5-0.9c-1.3-0.3-2.5-0.7-3.7-1.3c-0.6-0.4-1.1-0.9-1.4-1.5c-1-1.9-0.7-4.2,0.7-5.8c1-1,2.4-1.6,3.8-1.5
	c0.9,0,1.9,0.1,2.7,0.5c0.7,0.3,1.4,0.8,1.9,1.4c0.5,0.8,0.8,1.8,0.9,2.7l-2.3,0.5c-0.3-1.9-1.3-2.8-3.1-2.7
	c-0.8-0.1-1.6,0.2-2.3,0.6c-0.4,0.4-0.7,1-0.7,1.6c0,0.6,0.3,1.1,0.8,1.5c0.8,0.4,1.7,0.7,2.6,0.9c1.3,0.4,2.6,0.8,3.8,1.4
	c0.6,0.4,1.1,0.9,1.4,1.5c0.9,2.1,0.6,4.5-0.9,6.2c-1.1,1.1-2.6,1.7-4.2,1.6C113.7,262.4,111.7,260.6,111.1,257z"/>
<path d="M134.9,261.4l-0.4-14.7h-2v-2.2h2.1v-1.8c-0.1-1,0.1-2,0.4-3c0.2-0.7,0.6-1.2,1.2-1.6c0.7-0.3,1.4-0.5,2.1-0.6l2.3,0.3
	l-0.3,2.5h-1.4c-0.6,0-1.1,0.2-1.5,0.6c-0.3,0.3-0.4,1-0.4,2.1v1.4h2.7v2.2H137l0.3,14.8H134.9z"/>
<path d="M141.3,252.8c-0.1-2.9,0.4-5.2,1.6-6.7c1.1-1.4,2.8-2.3,4.6-2.3c1.8-0.1,3.6,0.7,4.7,2.1c1.3,1.4,2,3.5,2.1,6.4
	s-0.5,5.3-1.7,6.8c-1.1,1.5-2.8,2.4-4.6,2.4c-1.8,0-3.5-0.8-4.7-2.1C142,257.9,141.4,255.7,141.3,252.8z M143.7,252.7
	c-0.1,1.7,0.4,3.4,1.3,4.9c0.7,1,1.8,1.5,3,1.5c1.2,0,2.2-0.7,2.8-1.7c0.8-1.1,1.1-2.7,1.1-4.9c0-1.7-0.4-3.4-1.3-4.9
	c-0.8-0.9-1.9-1.5-3.1-1.5c-1.2,0.1-2.2,0.7-2.8,1.7C143.9,249.3,143.5,251,143.7,252.7L143.7,252.7z"/>
<path d="M158,260.8l-0.5-16.9h2.1v2.5c0.3-0.9,0.8-1.7,1.4-2.4c0.4-0.4,0.9-0.6,1.5-0.7c0.9,0,1.8,0.4,2.5,0.9l-0.8,2.7
	c-0.5-0.4-1.1-0.6-1.7-0.6c-0.5,0-1,0.2-1.4,0.6c-0.4,0.4-0.7,0.9-0.8,1.5c-0.3,1.1-0.4,2.3-0.3,3.5l0.2,8.8L158,260.8z"/>
<g id="rect1875-3">
	
		<rect x="401.8" y="247.7" transform="matrix(7.323814e-02 -0.9973 0.9973 7.323814e-02 109.8205 676.4143)" class="st2" width="34.1" height="62.9"/>
</g>
<path d="M392,288.7l1.1-16.9h2.2l-0.2,2.4c0.5-0.8,1.2-1.5,2-1.9c0.8-0.4,1.7-0.6,2.6-0.5c0.7,0,1.4,0.2,2,0.6
	c0.6,0.3,1.1,0.7,1.5,1.2c0.4,0.6,0.6,1.2,0.7,1.9c0.1,1.2,0.1,2.3,0,3.5l-0.7,10.4l-2.3-0.2l0.7-10.3c0.1-0.9,0-1.8-0.1-2.7
	c-0.2-0.5-0.5-1-0.9-1.4c-0.4-0.4-1-0.6-1.6-0.6c-1.1-0.1-2.1,0.3-2.8,1.1c-0.8,1.2-1.3,2.7-1.3,4.2l-0.6,9.3L392,288.7z"/>
<path d="M412.9,287.6v2.5c-0.6,0.2-1.1,0.2-1.7,0.2c-0.7,0-1.4-0.3-2-0.6c-0.5-0.3-0.8-0.8-0.9-1.4c-0.2-1.1-0.2-2.3-0.1-3.4
	l0.7-9.8h-1.6v-2.2h1.8l0.3-4.2l2.4-1.5l-0.4,5.9h2.4l-0.2,2.3l-2.3-0.2l-0.7,9.9c-0.1,0.6-0.1,1.2,0.1,1.8c0.1,0.4,0.6,0.7,1,0.6
	L412.9,287.6z"/>
<path d="M415.6,290.4l1.2-17l2.1,0.2l-0.2,2.6c0.4-0.8,0.9-1.6,1.6-2.3c0.5-0.4,1-0.5,1.6-0.5c0.9,0.1,1.7,0.5,2.3,1.1l-0.9,2.6
	c-0.5-0.4-1.1-0.6-1.7-0.7c-0.5-0.1-1,0.1-1.4,0.4c-0.5,0.4-0.8,0.8-1,1.4c-0.4,1.1-0.6,2.3-0.7,3.5l-0.6,8.8L415.6,290.4z"/>
<path d="M424.8,282.5c0.2-2.9,1-5.1,2.3-6.5c1.2-1.3,3-2,4.8-1.9c1.8,0.1,3.5,1,4.5,2.6c1.2,1.5,1.6,3.7,1.4,6.5s-0.9,5.3-2.3,6.7
	c-2.2,2.4-5.9,2.6-8.3,0.4c-0.4-0.3-0.7-0.7-1-1.1C425.1,287.7,424.6,285.4,424.8,282.5z M427.2,282.7c-0.2,1.7,0.1,3.4,0.9,4.9
	c0.5,1.1,1.6,1.8,2.8,1.8c1.2,0,2.3-0.5,3-1.4c1-1.4,1.6-3.1,1.5-4.8c0.3-1.7,0-3.4-0.8-4.9c-0.6-1-1.7-1.7-2.9-1.8
	c-1.2,0-2.3,0.5-3,1.4C427.8,279.3,427.2,281,427.2,282.7z"/>
<path d="M440.6,292.1l1.6-23.3h2.3l-1.6,23.4L440.6,292.1z"/>
</svg>
